<?xml version="1.0" standalone="no"?>
<!DOCTYPE svg PUBLIC "-//W3C//DTD SVG 1.1//EN" "http://www.w3.org/Graphics/SVG/1.1/DTD/svg11.dtd" >
<svg xmlns="http://www.w3.org/2000/svg" xmlns:xlink="http://www.w3.org/1999/xlink" version="1.1">
<metadata></metadata>
<defs>
<font id="gravity_handwrittenregular" horiz-adv-x="0" >
<font-face units-per-em="2048" ascent="1638" descent="-410" />
<missing-glyph horiz-adv-x="401" />
<glyph />
<glyph unicode="&#xd;" />
<glyph unicode=" "  horiz-adv-x="401" />
<glyph unicode="&#x09;" horiz-adv-x="401" />
<glyph unicode="&#xa0;" horiz-adv-x="401" />
<glyph unicode="A" horiz-adv-x="914" d="M99 311q-13 16 -19 37t0 43q4 17 19 38q11 15 29 28q10 9 32 23q28 17 71 35q48 19 92 32q42 132 64 198q76 233 153 424q49 120 93 206q29 56 57 99q42 62 76 88q15 11 27 16q20 7 35 6q12 -2 18 -5q9 -4 16 -11q11 -12 19 -27q11 -23 18 -57q7 -25 10 -57 q12 -90 12 -226q1 -188 -18 -450q-3 -60 -9 -120q48 1 95 0q24 -1 77 -5q45 -5 77 -15q7 -2 4 -9q-2 -8 -8 -4h-1q-32 10 -74 13q-25 3 -76 5q-47 2 -95 0q-11 -139 -29 -313q-16 -150 -25 -224l-13 -112l-7 -56l-4 -28q-1 -5 -2.5 -14.5t-2.5 -13.5q-2 -15 -18 -13 q-16 4 -12 18v1q2 7 4 27l4 27l7 56l14 111q10 83 25 224q20 206 28 309q-5 0 -13.5 -0.5t-12.5 -0.5q-146 -9 -304 -37q-84 -15 -150 -32q-7 -2 -20 -5.5t-18 -5.5q-46 -150 -68 -225q-52 -172 -92 -323v-5q0 -3 -9 -62q-1 -6 -3 -16t-3 -16q-1 -1 -1 -4t-1 -5 q-2 -6 -5 -11l-1 -1q-1 -2 -3 -4t-5 -4q-3 -1 -8 -1t-7 1l-2 2l-2 1l-3 3q-2 2 -2 3l-2 3q0 1 -0.5 2.5t-1.5 2.5q-2 5 0 10q4 16 13.5 47.5t13.5 46.5q1 3 1 8l3 6q90 307 160 532q-48 -15 -78 -28q-41 -18 -67 -34q-23 -15 -31 -21q-18 -16 -25 -26q-12 -16 -15 -30 q-5 -17 0 -32q4 -16 16 -31q8 -12 26 -26q11 -7 3 -17q-9 -10 -18 -3l-2 2q-25 31 -26 32zM411 737q-30 -86 -60 -182q9 3 27 7q81 21 151 32q143 26 306 35q4 0 14 0.5t15 0.5l9 123q18 268 18 448q0 134 -12 222q-3 29 -9 54q-7 31 -17 50q-4 11 -12 19q-5 5 -8 6 q-1 1 -4 1.5t-4 0.5q-12 0 -21 -4q-9 -2 -20 -12q-34 -25 -70 -81q-23 -35 -56 -95q-39 -77 -93 -204q-74 -179 -154 -421z" />
<glyph unicode="B" horiz-adv-x="1160" d="M69 -47q19 35 45 60q43 46 112 94q10 6 15 -3q6 -8 -3 -14v-1q-31 -19 -58 -41q-31 -25 -52 -48q-30 -32 -39 -56q-7 -16 -5 -30q1 -13 10 -25q12 -17 52 -32q33 -10 68 -15q61 -9 140 -6q142 6 279 47q72 22 132 51q74 37 120 73q60 45 99 97q43 56 65 122q21 66 21 137 q2 70 -24 135t-71 118q-43 52 -103 96q-56 42 -121 71q-68 32 -134 46q-6 2 -11 2q-32 -18 -48 -26q-44 -22 -67 -30q-24 -8 -36 -11q-2 0 -3 -1q-13 -74 -20 -120q-36 -223 -54 -391q-12 -132 -14 -197v-5q3 -1 7 -7q12 -28 13 -53q1 -13 0 -28q0 -1 -1 -3.5t-1 -3.5 q-3 -10 -4 -11q0 -2 -4 -4q-2 -3 -4 -3q-6 -2 -8 -2q-6 2 -7 3q-1 0 -2 1t-2 1l-2 3q-2 2 -5 8q-5 11 -7 29q-1 8 -3 26v50q2 67 16 199q21 187 56 393q12 74 19 111h-8q-17 0 -24 3q-10 5 -12 13q-3 6 -1 17l2 3l1 2q0 1 2 5l6 9q8 10 13 15q13 12 37 21q10 51 38 191 q25 112 46 193q16 64 26 96q19 61 34 94q3 10 14 6q10 -5 6 -14v-1q-14 -31 -33 -92q-9 -31 -25 -95q-27 -107 -44 -192q-26 -131 -35 -179q1 0 3.5 1t3.5 1q49 8 114 -1q27 15 77 49q122 87 201 198q43 58 71 122t42 135q7 38 8 69q2 36 -6 69q-16 72 -71 110 q-27 19 -59 27q-32 9 -67 7q-28 0 -69 -9q-13 -2 -17 -4q-2 -1 -7.5 -2.5t-8.5 -1.5l-33 -12q-53 -23 -120 -72q-61 -49 -100 -99q-19 -22 -40 -58q-17 -29 -28 -64q-23 -75 18 -126q9 -13 -3 -22q-11 -10 -21 2l-1 2l-1 1q-20 36 -22 74q-3 33 10 76q21 65 70 129 q49 60 103 104q61 51 124 80q11 5 35 13q12 4 18 5q9 4 18 5q40 10 74 10q34 3 75 -7q40 -11 70 -34t51 -58q18 -30 26 -71q8 -38 6 -75q-3 -35 -9 -73q-24 -137 -115 -267q-79 -113 -206 -206q-16 -12 -50 -34q141 -33 256 -113q64 -45 110 -98q52 -62 77 -127 q28 -73 27 -146q0 -78 -22 -147q-24 -72 -69 -132q-45 -58 -106 -104q-103 -80 -262 -129q-135 -41 -287 -47q-76 -3 -147 7q-44 7 -73 17q-21 7 -35 16q-21 12 -32 27q-14 18 -12 43q1 19 12 39zM403 785v-1v1zM430 787l3.5 17.5t3.5 19.5q-12 -7 -19 -14t-9 -11 q-2 -3 -4 -7l-1 -2v-2l-1 -1v-2h12q5 0 15 2zM545 831q5 2 15 8q-2 0 -6 0.5t-6 0.5q-36 3 -70 -3q-3 -1 -7 -2t-7 -1q-4 -26 -7 -40q16 6 23 9q38 14 65 28z" />
<glyph unicode="C" horiz-adv-x="1107" d="M182 -54q-47 53 -68 129q-18 64 -18 142q0 63 12 142q20 123 74 274q44 122 114 259q67 130 143 244q82 123 171 225q102 117 206 195q69 51 122 75q38 17 69 25q42 9 75 5q41 -5 71 -32q27 -23 42 -62q21 -56 16 -144q-6 -67 -28 -139q-20 -65 -56 -131 q-34 -61 -80 -117q-25 -32 -49 -53q-33 -31 -61 -42q-12 -4 -20 -4q-12 -2 -23 4q-10 4 -18 16q-4 7 -6 22q-4 33 19 74q17 31 47 58q31 26 63 40q15 6 20 -8q3 -5 0.5 -11.5t-7.5 -8.5h-1q-68 -28 -100 -83q-20 -32 -17 -59q0 -15 10 -20q9 -4 25 1q24 8 55 36q29 28 48 50 q50 58 80 113q35 61 56 127q22 69 25 136q3 79 -21 133q-15 33 -38 51q-24 19 -56 24q-25 4 -64 -4q-28 -8 -64 -23q-50 -23 -117 -72q-101 -75 -202 -191q-89 -103 -169 -222q-74 -109 -142 -241q-66 -128 -113 -255q-50 -138 -73 -269q-12 -79 -12 -138q0 -74 17 -135 q20 -73 62 -119q43 -49 111 -70q60 -20 134 -8q62 10 131 41q111 51 231 153q107 94 195 199q42 54 61 82q-3 3 -3 9v1q10 41 31 69l9 9q1 0 2 1q2 1 3 1q4 2 9 0l6 -6q3 -3 3 -9q0 -12 -5 -22q-5 -14 -16 -33q-9 -16 -40 -60q-17 -23 -43 -56q-92 -111 -197 -202 q-118 -102 -236 -158q-70 -32 -137 -43q-76 -13 -145 8q-74 24 -123 77z" />
<glyph unicode="D" horiz-adv-x="931" d="M65 101q9 14 18 22q21 18 52 21q10 0 12 -11q0 -11 -10 -11h-1q-23 0 -40 -14q-18 -13 -23 -37q-6 -23 0 -45q5 -20 20 -41q29 -36 76 -52q39 -16 95 -19q50 -3 96 7l24 6q5 1 12.5 3.5l10.5 3.5q15 5 45 19q79 37 158 115q69 67 123 154q53 81 93 175q75 177 102 382 q12 95 10 198q0 115 -14 198q-16 106 -51 191q-40 99 -101 166q-23 27 -72 65q-39 27 -85 44q-46 15 -93 17q-45 1 -93 -15q-48 -18 -81 -49q-34 -34 -51 -80q-5 -10 -14 -46q-5 -37 -4 -48q-3 -42 13 -96v-1q4 -12 -9 -16q-12 -4 -16 9q0 1 -1 2q-9 79 -8 102q0 18 4 52 q9 39 14 50q19 53 55 89q39 39 88 58q48 19 103 19q54 -2 103 -18q44 -16 93 -48q45 -34 77 -70q66 -76 105 -176q33 -84 52 -196q18 -107 19 -202q2 -109 -11 -203q-28 -209 -107 -390q-41 -95 -96 -179q-62 -93 -128 -157q-80 -78 -166 -120q-5 -2 -21.5 -9t-26.5 -10 q-4 -1 -12 -4t-12 -4l-26 -6q-4 -1 -12.5 -2t-12.5 -2q-1 0 -11 -1.5t-15 -1.5h-26q-17 0 -26 1q-55 3 -101 20q-56 22 -86 62q-36 50 -21 104q3 11 11 25zM361 672q-26 -229 -35 -394q-4 -70 -4 -106q1 -1 3 -5l12 -48q6 -36 8 -50q2 -18 1 -27q0 -5 -1 -8q-3 -9 -6 -12 q-3 -5 -9 -5q-4 -1 -10 0q-4 1 -12 9l-4.5 9t-2.5 6q-1 3 -2 7.5t-1 6.5q0 4 -1 12.5t-2 12.5q-2 34 -2 101q2 66 4 99q13 186 38 395q23 198 54 392q17 97 36 195q23 114 45 193q4 9 12 6q8 -2 6 -11q-24 -89 -43 -192q-12 -65 -32 -195q-30 -184 -52 -391z" />
<glyph unicode="E" horiz-adv-x="924" d="M112 64q-25 52 -32 122q-3 28 -1 63q4 42 8 62q9 54 33 120q40 109 120 216q68 89 169 179q87 76 197 146q84 54 163 92q-17 1 -51 5q-66 10 -121 28q-64 23 -111 56q-26 18 -47 44q-21 27 -28 59q-3 9 -5 32q0 12 2 32q5 36 17 63q25 58 80 98q50 37 115 51 q122 28 244 -29q53 -25 100 -63q6 0 9 -5l1 -1v-3q12 -10 18 -16l11 -11q1 -1 2.5 -3.5t2.5 -3.5t3 -5q0 -2 1 -3q0 -4 -2 -8t-8 -4q-3 0 -4 1q-1 0 -5 2q-3 1 -7 5q-8 5 -12 12q-8 9 -17 27q-49 38 -101 61q-117 52 -231 24q-59 -14 -105 -48q-51 -37 -72 -89 q-11 -27 -14 -55q-2 -19 -1 -28q0 -10 2 -28q12 -52 63 -92q40 -31 106 -52q57 -18 117 -24q62 -7 111 0q10 5 19 8q22 9 30 11q1 0 2.5 0.5t2.5 0.5h2h4q0 4 8 -4q7 -7 4 -14q-2 -5 -3 -6l-1 -1l-2 -2l-1 -1l-2 -1q-2 -2 -4 -2q-8 -5 -16 -8q-8 -2 -32 -7q-6 -2 -9 -4 q-106 -48 -212 -115t-193 -144q-97 -86 -164 -175q-77 -103 -117 -208q-22 -60 -32 -115q-4 -21 -8 -59q-2 -32 1 -58q5 -63 29 -113q25 -55 68 -92q43 -38 100 -57q54 -18 116 -16q120 3 223 72q88 58 173 166q39 49 71 98q3 4 15.5 22.5t19.5 27.5q6 9 18 25q16 18 23 23 q6 6 10 -1q6 -6 -1 -10v-1h-1q-9 -6 -19 -20q-7 -8 -19 -24q-28 -41 -34 -50q-35 -49 -72 -99q-85 -109 -175 -171q-30 -21 -53 -32q-25 -14 -56 -27q-60 -23 -122 -26q-66 -3 -125 16q-64 20 -111 63q-46 41 -75 101z" />
<glyph unicode="F" horiz-adv-x="545" d="M475 1179q-29 -118 -47 -211q-19 -96 -36 -200q31 15 56 26q59 25 118 41q70 19 123 23q32 3 64 0q38 -4 63 -16q15 -8 27 -21t15 -32q6 -29 -8 -65q-2 -9 -10 -5q-9 2 -5 10q11 35 6 56q-6 26 -33 40q-19 10 -57 14q-25 3 -60 -1q-53 -5 -119 -24q-62 -19 -115 -42 q-40 -18 -70 -34q-34 -207 -47 -408q-6 -115 -5 -215q1 -53 6 -107q4 -37 7 -52q8 -32 16 -48v-1q7 -12 -6 -20q-14 -9 -21 6q-1 1 -1 3q-8 24 -11 56q-3 18 -7 54q-5 54 -6 109q-1 101 5 216q11 187 43 393q-51 -28 -115 -73q-108 -80 -175 -169q-10 -12 -22 -3 q-11 11 -3 22h1q71 91 183 172q67 47 136 82q0 1 0.5 3t0.5 3q17 108 39 212q23 115 46 211q36 158 91 348q-33 -12 -99 -38q-116 -47 -211 -97q-41 -20 -102 -55q-68 -38 -98 -63q-12 -8 -22 2q-9 13 2 22q0 1 2 1t2 1q35 17 103 57q46 25 103 55q88 46 213 98 q76 30 115 43q7 25 13 44q4 13 17 9q5 -2 8 -7t1 -10v-1q-4 -16 -7 -24q161 54 302 81q84 18 174 27q-1 5 -3 13q-3 16 2 32q2 7 8 5q7 -2 5 -8q-5 -22 4 -40l42 3q60 4 118 3q20 0 60 -4q34 -4 59 -11q23 -9 30 -14q9 -6 14 -15q3 -9 3 -12q0 -4 -2 -10q-3 -16 -23 -29 q-11 -6 -31 -12q-27 -7 -60 -5q-30 0 -60 6q-66 12 -113 40q-23 14 -41 36q-92 -9 -182 -27q-153 -30 -314 -85q-55 -184 -99 -364zM1118 1659q-9 0 -29 -2q12 -12 31 -24q41 -24 107 -35q25 -4 57 -4q28 0 55 6q15 3 24 10q11 6 12 15q1 1 1 4q0 1 -1 1q0 1 -6 7 q-7 5 -23 10q-39 11 -112 15q-58 1 -116 -3z" />
<glyph unicode="G" horiz-adv-x="1029" d="M1190 1211q9 -45 9 -93q1 -77 -22 -184q-8 -34 -26 -95.5t-24 -84.5q-4 -12 -16 -9q-13 4 -9 16q0 2 1 3q31 61 60 173q9 40 16 90q6 48 5 91q0 49 -10 90q-11 46 -34 82q-25 39 -62 61q-36 22 -82 27q-78 8 -174 -28q-69 -27 -160 -86q-147 -95 -278 -237 q-122 -132 -214 -295q-99 -178 -129 -339q-17 -102 -3 -178q4 -21 12 -43q9 -24 18 -39q24 -39 60 -59q35 -22 81 -25q38 -3 86 11q76 23 161 82q60 41 143 113q27 23 74 67.5t62 58.5q40 38 70 61q12 9 22 13q8 4 16 3q2 0 6 -1t7 -2q26 -9 41 -32q15 -20 21 -46 q4 -16 8 -48q3 -43 -4 -95q-10 -83 -35 -168q6 1 18.5 2.5t18.5 2.5q70 5 94 3q16 -2 25 -6q5 -3 8 -7q5 -5 1 -10q-2 -3 -5 -6q-1 -1 -15 -4q-26 -1 -48 17q-30 0 -58 -3q-15 -1 -43 -5q-26 -85 -66 -173q-26 -56 -41 -83q-26 -46 -50 -79q-56 -80 -121 -143 q-79 -79 -148 -116q-26 -13 -45 -19q-27 -8 -51 -7q-31 2 -50 21q-18 17 -24 47q-8 39 5 97q9 39 32 89q37 77 105 154q131 141 313 198q49 15 90 22q5 1 15 2.5t15 2.5q28 93 36 174q3 48 -1 89q-5 52 -22 82q-12 20 -27 28q-1 0 -3 1t-3.5 1.5t-2.5 0.5q-2 2 -6 0 q-10 -3 -19 -9q-16 -10 -36 -28q-1 -1 -14 -13t-20 -18q-12 -11 -63.5 -61t-73 -70.5t-62.5 -55t-76 -60.5q-90 -65 -166 -89q-50 -17 -96 -14q-52 3 -93 28q-44 26 -70 69q-13 20 -21 44q-8 22 -13 47q-16 83 3 189q29 165 131 348q91 162 219 301q132 143 284 240 q97 62 165 87q49 18 92 26q52 8 95 3q51 -6 91 -33q41 -26 66 -70q22 -34 34 -89zM794 -112q39 84 62 158q-59 -8 -110 -25q-85 -27 -165 -77q-74 -48 -138 -118q-62 -70 -99 -151q-19 -45 -29 -85q-11 -52 -3 -86q5 -22 17 -34q15 -12 34 -12q33 -1 80 23q35 19 74 51 q30 24 68 60q60 60 118 139q22 30 49 76q18 31 42 81z" />
<glyph unicode="H" horiz-adv-x="884" d="M66 22q-20 17 -23 42q-3 23 7 44q13 30 45 66q40 44 116 102q57 41 126 85q6 5 53 33q19 138 38 323q17 150 26 270q14 162 0 268q-5 37 -13 65q-10 36 -25 60q-20 30 -44 42q-26 14 -60 11q-28 -1 -62 -15q-23 -9 -59 -30q-52 -30 -108 -78q-12 -8 -22 2q-9 13 2 22h1 q63 49 114 77q30 18 63 30q37 13 70 16q39 3 72 -14q30 -16 52 -52q18 -30 27 -65q9 -27 14 -68q14 -105 1 -273q-10 -133 -24 -271q-17 -168 -34 -303q16 10 48 28q147 81 272 136q20 9 62 27q20 152 31 227q34 241 78 480q-7 7 -4 17h1q2 5 6 15.5t6 15.5l16 85l12 61 l3 15q2 10 4 16q1 4 5 17q2 6 4 9l2 2q1 1 3 4q3 2 5 3q4 4 11 2q2 0 6 -2l4 -4q0 -1 2 -3q0 -2 1 -2q0 -1 0.5 -3.5t1.5 -3.5v-5v-5v-17q-6 -30 -6 -32q-6 -30 -15 -61q-15 -49 -38 -105q0 -2 -1 -6.5t-1 -6.5q-43 -227 -82 -489q-10 -72 -30 -214q18 7 54 19q35 13 74 21 q29 5 40 3q16 -2 23 -9q3 -3 6 -14q0 -5 -2 -13t-11 -6q-8 2 -6 11v1q1 2 1 6q0 2 -1 3q-2 4 -12 4q-11 2 -35 -2q-30 -5 -72 -19q-48 -17 -61 -22q-18 -145 -29 -261q-14 -150 -18 -247q-3 -56 -1 -124l1 -31l3 -30q6 -27 6 -29q1 -2 2.5 -7t2.5 -7t3 -6.5t3 -6.5l1 -1 q5 -14 -7 -21q-14 -7 -21 6l-2 4q-2 12 -3 17q0 1 -3 17l-1 8l-1 8l-2 16l-2 31l-2 31q-1 43 1 125q4 116 17 249q12 124 27 249q-18 -7 -54 -23q-129 -57 -269 -138l-60 -36q-14 -106 -30 -213q-25 -162 -49 -268q-18 -81 -35 -132q-16 -44 -27 -65q-7 -16 -20 -32 q-10 -10 -17 -14q-11 -7 -27 -5q-16 4 -12 18q2 15 17 13h1q2 -2 6 1q5 2 9 8q7 7 16 25q14 26 25 60q20 61 36 130q26 115 50 265q8 53 28 191q-93 -58 -163 -112q-69 -55 -109 -101q-29 -33 -39 -59q-6 -15 -4 -30q3 -14 14 -22q12 -10 2 -22q-9 -11 -22 -2z" />
<glyph unicode="I" horiz-adv-x="379" d="M183 371q-14 -153 -17 -233q-2 -78 -1 -116l2 -29q0 -11 2 -29q0 -1 2 -12t4 -16q1 -3 4 -13q4 -8 6 -11l1 -2q2 -4 2 -7q26 8 40 12q62 17 110 25q38 6 58 6q14 0 31 -3q12 -5 17 -9q6 -6 7 -12q2 -8 -2 -15q-6 -12 -16 -4q-9 5 -5 14q-2 3 -7 4q-12 3 -25 3 q-18 0 -54 -4q-46 -8 -110 -23q-95 -25 -214 -67q-5 -1 -9 4q-2 7 4 9q84 31 147 51h-1l-1 1q0 1 -0.5 2.5t-0.5 2.5q-2 10 -4 16q-1 2 -1 7t-1 8l-1 8l-1 7l-1 15l-3 30l-1 30q-2 39 0 118q4 98 16 234q19 203 57 467q37 253 74 452q-8 6 -4 17l12 30l15 80l11 53 q-73 -24 -124 -43q-74 -27 -159 -65q-12 -4 -15 6q-5 11 5 15h1q18 7 51 19.5t60 22.5t51 18q22 8 66.5 23.5t66.5 23.5q3 11 4 14q0 3 5 16q0 1 1 2l3 6l2 3l1 1q0 2 1 2t2 1q2 2 3 2q4 4 11 2q2 0 6 -2l4 -4q3 -3 3 -5q2 -4 2 -7v-5q1 -1 1 -4v-6q72 24 147 45 q44 12 84 20q23 5 45 6q10 1 25 0q11 -3 16 -7q6 -5 8 -13q1 -3 1 -7q0 -2 -0.5 -3.5t-0.5 -2.5q-6 -15 -20 -10q-10 3 -10 14q-5 1 -18 1t-41 -4q-37 -5 -84 -17q-61 -14 -155 -43q-1 -6 -3 -20q-6 -29 -15 -58q-14 -47 -35 -99l-3 -12q-45 -244 -77 -462 q-37 -250 -58 -465zM675 1549z" />
<glyph unicode="J" horiz-adv-x="771" d="M924 647h-2q-62 -8 -132 -36q-4 -6 -7 -16q-59 -132 -119 -244q-76 -139 -139 -234q-85 -130 -163 -219q-53 -58 -100 -95q-31 -24 -60 -36q-19 -9 -35 -10q-19 -3 -39 3q-20 7 -32 22q-11 13 -17 35q-6 30 3 72q12 54 49 128q59 112 154 226q87 105 191 194 q112 96 224 154q23 13 55 27q54 122 95 242q49 144 70 259q14 75 15 132q0 83 -21 128q-3 8 -16 27q-8 10 -22 21q-12 9 -27 15q-12 3 -31 7q-53 6 -127 -21q-55 -20 -120 -59q-53 -32 -110 -76q-111 -89 -198 -183q-48 -53 -85 -104q-45 -64 -69 -116q-8 -14 -21 -7 q-14 7 -7 21l1 2q16 20 44 56.5t40 52.5q46 58 87 104q93 109 196 189q64 49 112 78q65 40 123 61q76 28 137 22q21 -2 35 -8q19 -6 33 -16q18 -14 26 -26q10 -11 19 -31q15 -28 20 -68q5 -29 5 -69q0 -66 -11 -137q-20 -118 -67 -265q-36 -108 -81 -213q57 21 117 30 q3 3 8 3q2 0 3 -1h2q20 2 31 3q16 4 31 1q8 -3 10 -4l4 -4q2 -5 1 -9q-1 -5 -4 -6l-3 -3q-4 -2 -18 -4q-7 0 -58 5zM635 366q55 105 109 225q-6 -3 -35 -17q-105 -54 -221 -152q-104 -90 -188 -192q-94 -113 -150 -222q-37 -70 -48 -124q-7 -38 -2 -62q3 -16 12 -26t23 -15 q23 -9 58 6q28 12 55 35q46 35 95 93q77 90 158 217q66 105 134 234z" />
<glyph unicode="K" horiz-adv-x="675" d="M381 391q-43 -30 -64 -41q-7 -4 -23 -12q38 -23 83 -52q170 -106 259 -149q34 -17 69 -30q41 -16 70 -22q45 -9 71 -7q14 2 20 4l9 9q6 6 10 9q5 5 13 9q10 3 14 3q5 0 7 -1q1 -1 3 -2.5t3 -2.5t2 -3l1 -2q0 -1 1 -2.5t1 -2.5q2 -8 -4 -14q-15 -14 -38 -22h-1 q-7 -7 -14 -4q-13 -3 -26 -3q-39 0 -77 11q-64 18 -142 57q-90 44 -260 150q-77 48 -94 58q-21 -6 -29 -7q-26 -4 -42 4q-4 2 -5 3q-8 -30 -16 -53q-56 -185 -69 -235q-18 -73 -24 -119q0 -4 -0.5 -12.5t-0.5 -13.5q2 -4 2 -8q1 -2 2 -5q1 -2 5 -8q8 -12 12 -19 q8 -12 12 -25q2 -11 -2 -20q-3 -10 -12 -15q-9 -7 -18 0q-16 12 -23 31q-7 20 -8 34q-3 28 1 65q5 42 25 122q9 36 71 236q6 18 22 76v1q-2 8 -1 15q2 6 7 8l1 1q1 3 2.5 8.5t2.5 8.5q19 68 32 118q29 109 60 238q36 160 50 240q26 140 36 242q6 62 6 122q0 73 -12 119 q-9 32 -24 50q-18 21 -45 18q-21 -1 -53 -18q-30 -18 -49 -34q-8 -8 -17 1q-7 8 2 17q29 22 53 36q33 19 62 21q20 2 35 -5q15 -5 29 -21q18 -21 29 -59q12 -46 14 -125q0 -62 -6 -124q-11 -116 -35 -244q-18 -104 -49 -242q-36 -150 -59 -239q-10 -39 -32 -119l-3 -12h1 q12 -5 34 -17q5 -3 14 -8t13 -8q12 5 34 17q21 12 61 40q53 40 113 98q103 99 197 224q92 118 165 249q76 131 128 269q55 143 76 287q4 15 18 13q15 -4 13 -18q-22 -138 -81 -292q-55 -139 -133 -271q-68 -120 -168 -251q-102 -130 -201 -225q-70 -64 -116 -98zM242 339 q2 1 5.5 2t5.5 1q-3 1 -7.5 3.5t-5.5 3.5q-5 3 -10.5 5.5t-12 5.5t-9.5 5q-1 -3 -2.5 -8.5t-2.5 -8.5l2 -2q1 0 3 -2t3 -2q13 -6 31 -3z" />
<glyph unicode="L" horiz-adv-x="505" d="M132 391q21 255 86 553q43 195 123 448q0 7 2 11q2 2 4 6q4 13 12 37.5t12 36.5q5 14 19 9q6 -2 9 -6q3 -2 3 -4q2 -2 2 -4q1 -2 1 -12q0 -2 -3 -14q-4 -13 -10 -23q-3 -8 -11 -22q-3 -8 -12 -20q0 -1 -2 -3q-66 -183 -125 -445q-64 -292 -84 -550q-13 -165 -4 -277 q7 -84 24 -134q6 -16 14 -28q10 -15 20 -19q11 -6 25 -1q1 0 3 1l4 2l8 3q3 1 8.5 3.5t8.5 3.5q63 24 136 37q54 10 140 16q44 4 107 2q12 1 34 5q28 5 36 4h5q3 0 5 -1q4 -2 6 -4q2 0 2 -3l1 -2v-1v-2q0 -4 -2 -4l-2 -1q-2 -1 -3 -1q-2 -1 -5 -1h-9h-36h-30h-1 q-54 0 -108 -3q-70 -6 -137 -21q-71 -18 -130 -43q-6 -2 -16 -6l-8 -4q-6 -3 -9 -4q-2 0 -5.5 -1t-4.5 -2q-8 0 -11 -1q-16 2 -22 6q-18 8 -31 28q-10 15 -16 34q-11 28 -18 70q-4 24 -8 70q-8 109 3 281z" />
<glyph unicode="M" horiz-adv-x="1076" d="M420 1488q33 31 59 52q39 32 68 45q11 5 20 8q14 3 26 1q9 -2 14 -6q7 -4 11 -12q4 -7 6 -26q0 -14 -7 -42q-2 -6 -5.5 -19t-4.5 -20q-15 -50 -49 -148q-51 -145 -106 -294q-70 -196 -104 -294q-58 -166 -97 -296q-50 -165 -78 -301q-17 -85 -21 -152q-2 -41 4 -75 q4 -21 10 -34q43 161 95 328q63 200 122 356q138 376 302 690q36 69 92 164q26 44 51 80q28 43 57 76q12 16 33 35q4 3 10.5 8.5t9.5 8.5q1 1 3 2q1 1 1.5 1t1.5 1l2 1l4 2q10 6 22 2q10 -4 17 -16q3 -5 5 -15q2 -20 2 -27q0 -18 -4 -48q-8 -64 -38 -186q-17 -64 -50 -186 t-48 -178q-8 -30 -24 -90.5t-24 -90.5q-30 -122 -44 -182q-16 -81 -17 -91q-4 -30 -3 -44v-6q11 9 28 31q9 12 25 38q28 56 41 84q23 51 47 108t53.5 129.5t44.5 108.5q60 139 76 173q47 103 88 167q16 25 29 39q16 21 37 35q12 9 27 10q9 2 18 -3q8 -4 14 -12q6 -10 10 -28 q1 -8 1 -25q0 -32 -10 -96q-7 -37 -20 -92q-28 -117 -97 -364q-66 -242 -94 -363q-24 -103 -38 -184q-7 -44 -12 -92q-5 -50 -2 -92q2 -25 7 -43q3 -12 7 -19q10 -17 11 -19q26 -40 68 -47q43 -6 82 20q19 13 31 29q13 19 13 38q0 11 10 11t10 -10v-1q0 -25 -17 -49 q-16 -22 -36 -35q-46 -31 -97 -24q-24 3 -48 17q-20 14 -38 36q-5 7 -13 21q-7 12 -10 24q-6 22 -8 50q-2 38 3 96q3 34 13 94q11 62 39 184q4 14 96 364q71 261 94 364q6 24 19 91q9 54 9 91q0 15 -1 21q-2 14 -4 17q-4 5 -8 5q-7 0 -17 -5q-12 -7 -32 -29q-16 -19 -27 -37 q-38 -56 -89 -163q-38 -81 -76 -172q-21 -49 -69.5 -166.5t-75.5 -180.5q-20 -44 -40 -86q-14 -28 -22 -43q-1 -3 -3 -6.5t-5 -8t-4 -6.5q-10 -14 -18 -21q-8 -6 -15 -9q-6 -2 -13 -2q-10 2 -15 8q-7 8 -9 19q-2 10 -2 14q0 18 4 50t18 94q23 99 97 364q62 220 94 363 q28 122 36 183q3 22 3 45q0 14 -1 20q0 5 -2 7q0 2 1 1l-1 1q-2 -1 -4 -1q-1 -1 -2 -1t-2 -1q-4 -1 -19 -11q-17 -15 -32 -32q-52 -62 -107 -152q-36 -58 -91 -164q-77 -147 -159 -340q-77 -183 -136 -349q-69 -195 -118 -357q-53 -174 -99 -361v-3q-5 -16 -21 -10 q-3 0 -7 4q-17 16 -24 39q-6 13 -10 41q-4 35 -2 81q4 69 21 156q23 116 77 304q76 254 199 593l105 293q34 98 49 147q9 30 11 37q5 22 5 35q2 8 -2 12q-2 3 -4 4q-3 1 -13 -1t-17 -4q-28 -11 -65 -38q-27 -19 -59 -48q-57 -53 -105 -114q-26 -32 -44 -63q-23 -36 -35 -68 q-8 -21 -10 -35q-4 -22 0 -34q3 -15 16 -25q12 -8 31 -11q15 -2 13 -17t-17 -13h-2h-1q-26 8 -40 21q-20 17 -23 40q-4 21 1 43q5 21 12 39q23 55 84 135q46 57 107 115z" />
<glyph unicode="N" horiz-adv-x="838" d="M211 317q-13 -67 -24 -135q-5 -35 -6 -67q0 -22 2 -33v-2q10 28 28 84q25 86 32 113l63 226q76 271 136 449q92 266 185 432q29 53 64 100q40 56 78 90q18 17 49 37q28 17 56 25q22 4 34 1q19 -3 32 -19q9 -13 14 -31q2 -9 4 -31q3 -41 -9 -119q-7 -43 -22 -116 q-8 -34 -56 -228q-83 -322 -111 -455q-27 -138 -38 -230q-17 -130 -9 -231q3 -58 18 -112q7 -27 20 -52q13 -28 28 -47q10 -11 19 -18q7 -6 21 -14q9 -4 25 -8q14 -3 26 -2q26 0 51 14q14 8 20 15q5 5 6 9q1 1 1 5q-6 10 4 15q9 5 14 -4h1v-1q6 -11 0 -23q-1 -2 -9 -16 q-13 -12 -26 -20q-28 -17 -60 -20q-35 -3 -64 10q-31 13 -52 38q-36 42 -55 110q-15 53 -20 119q-6 102 11 237q10 89 40 232q28 136 113 456q38 142 58 227q16 76 23 114q11 71 9 114q-2 33 -14 49q-6 9 -17 11q-14 2 -24 -2q-26 -6 -50 -22q-29 -18 -46 -34 q-38 -34 -75 -86q-32 -43 -63 -97q-50 -90 -101 -210q-48 -114 -83 -219q-66 -188 -139 -447q-42 -150 -62 -226q-54 -194 -65 -226q-3 -12 -15 -8q-1 0 -1 1l-2 1q-10 8 -14 19q-2 4 -4 11t-2 8q-2 13 -2 37t4 70q3 30 22 138q18 90 60 270q16 68 62.5 252t69.5 284 q15 64 27 134q16 90 16 135q0 17 -3 32q-2 8 -5 11q-2 3 -6 4q-8 0 -25 -13q-2 -1 -26 -20q-44 -40 -85 -105q-78 -125 -105 -250q-8 -46 -8 -67q0 -40 10 -64q5 -13 17 -25q9 -9 26 -14q12 -2 20 -2q12 8 20 11q10 4 18 5q8 0 14 -6q4 -6 4 -15q0 -7 -8 -10q-45 -10 -73 -2 q-20 4 -34 19q-15 13 -21 32q-11 25 -11 71q1 35 9 70q11 57 43 133q26 63 63 124q43 68 87 110q18 16 28 23q2 1 8 5q1 0 3.5 2t4.5 3q10 6 21 6q16 2 23 -11q8 -11 9 -20q3 -9 5 -37q0 -47 -14 -139q-7 -46 -25 -136q-25 -118 -128 -538q-35 -142 -62 -268zM264 881z" />
<glyph unicode="O" horiz-adv-x="681" d="M106 602q-13 48 -20 109q-17 138 9 295q26 148 84 284q68 152 160 250q55 60 120 91q40 18 75 21q7 1 20 1h20q3 -1 9.5 -2t9.5 -1q7 0 19 -4q41 -9 71 -35q30 -24 49 -61q30 -55 41 -145q8 -69 5 -149q-1 -49 -11 -147q-17 -140 -47 -290l-15 -72l-16 -71 q-31 -134 -33 -143q-47 -194 -77 -284q-25 -76 -51 -138q-36 -82 -70 -131q-26 -37 -47 -58q-34 -30 -66 -40q-24 -5 -40 -3q-20 3 -38 13q-3 2 -8.5 6t-7.5 5q-5 5 -15 13q-2 2 -6.5 7t-6.5 8l-6 7l-5 8q-19 25 -37 65q-16 36 -26 70q-19 65 -32 145q-19 134 -16 294 q1 28 5 82zM121 1002q-27 -151 -14 -289q1 -6 2.5 -18.5t2.5 -18.5q8 69 18 138q4 18 10 54q0 6 1 10l2 2q11 58 16 79q1 2 2.5 8.5t3.5 10.5l2 6q0 1 2 3q0 1 3 4q1 1 4 3q5 3 11 2t10 -5q2 -3 3 -5q2 -5 2 -9q0 -8 -2 -22q-2 -12 -4 -19q-11 -39 -27 -71q0 -1 -1 -2 q-1 -9 -4.5 -27t-5.5 -27q-19 -105 -28 -224q23 -83 59 -147q4 -8 -3 -11q-7 -5 -11 3q-27 45 -48 102v-12q-6 -155 12 -291q10 -71 30 -142q11 -36 25 -67q16 -38 34 -63q23 -34 49 -48q29 -19 63 -9q30 9 58 35q25 25 46 55q35 53 69 128q27 63 51 136q31 92 77 282 q37 153 62 286q30 159 42 290q7 72 9 145q0 90 -8 144l-2 18l-3 18q-1 3 -9 34q-10 37 -25 65q-19 34 -42 53q-25 19 -60 29q-5 1 -17 3q-10 2 -17 2l-17 1q-5 -1 -17 -1q-35 -5 -65 -19q-54 -25 -112 -84q-89 -93 -155 -242q-59 -137 -84 -276z" />
<glyph unicode="P" horiz-adv-x="473" d="M731 799q-7 -11 -23 -31q-49 -64 -107 -111q-62 -51 -131 -82q-78 -34 -152 -37q-13 -1 -39 1q-1 0 -19 3q-19 3 -20 3l-19 5q-6 2 -11 4q-4 -35 -13 -105.5t-14 -105.5q-9 -71 -32.5 -229.5t-34.5 -243.5q-2 -15 -17 -13q-16 2 -14 17q0 1 1 2q35 154 77 470 q5 37 14.5 109.5t14.5 105.5q-5 2 -13.5 7t-11.5 6q-68 40 -104 117q-5 9 5 13q9 5 13 -5q33 -70 96 -107q12 -6 17 -9q1 9 30 236q43 338 61 473l11 77q-6 4 -2 11q1 2 2.5 6t2.5 6l3 18q12 78 22 118q3 15 9 30q2 6 5 9l3 3q3 3 8 3t7 -2q3 -1 3 -3q2 -2 2 -4q2 -5 2 -11 v-8q-1 -26 -10 -61q-10 -45 -32 -88l-15 -107q-22 -157 -62 -473q-5 -40 -15.5 -120.5t-15.5 -120.5q11 -4 14 -5l18 -5l18 -3q12 -2 18 -2q24 -2 37 -1q71 3 143 35q70 32 126 80q51 41 104 107q3 5 10.5 15t11.5 16l20 31l19 33q3 5 8.5 16l8.5 17q34 72 52 141l9 36 q0 3 2 9.5t2 9.5l3 18q0 3 2.5 16.5t3.5 20.5t2.5 19t1.5 18q11 155 -51 292q-33 72 -82 123q-53 57 -118 85q-68 29 -143 21q-70 -7 -140 -42l-17 -9q-3 -2 -8 -5t-8 -4l-31 -20q-53 -40 -60 -46q-3 -2 -13 -10.5t-15 -13.5l-27 -26q-18 -18 -26 -27q-4 -5 -12.5 -14.5 t-12.5 -14.5v-1q-10 -10 -22 -2q-11 11 -2 22l1 1q15 13 28 28l10 11q11 11 17 16l28 27q9 9 29 25q6 6 61 47l33 21q4 2 10 5.5t7 4.5l18 9q74 37 150 44q80 8 155 -23q72 -31 127 -92q51 -54 85 -130q64 -141 53 -303q-1 -6 -2 -19t-2 -20q-1 -6 -3.5 -19t-3.5 -19l-3 -19 q0 -3 -1.5 -9.5t-2.5 -9.5q-1 -6 -4 -18.5t-5 -18.5q-21 -74 -54 -145q-3 -6 -9 -17.5t-9 -16.5l-19 -34z" />
<glyph unicode="Q" horiz-adv-x="747" d="M911 1339q16 -57 19 -133q2 -52 -5 -133q-11 -109 -50 -259q-33 -122 -83 -250q-53 -135 -107 -241q-65 -127 -137 -225q-40 -54 -82 -95q14 -7 42 -19q32 -14 63 -24q25 -9 32 -11l32 -10q15 -4 65 -16l1 -1q8 -2 6 -9q-2 -8 -10 -6l-66 15l-33 9q-22 6 -33 10 q-44 14 -65 23q-9 4 -26.5 11.5t-26.5 10.5q-17 -16 -41 -30q-35 -22 -65 -27q-36 -8 -71 3q-33 9 -62 34q-45 39 -79 112q-26 59 -40 128q-13 61 -16 132q-7 132 17 265q25 138 77 254q0 2 2 4q-8 99 6 186q21 135 94 248q78 119 193 184q62 35 126 48q74 15 137 -2 q69 -15 119 -67q25 -26 41 -56q14 -26 26 -63zM903 1075q5 79 3 130q-3 72 -21 126q-19 66 -61 108q-45 45 -106 59q-60 15 -124 1q-62 -12 -119 -44q-108 -60 -185 -174q-71 -107 -94 -238q-14 -74 -12 -149q25 51 44 81l27 42l3 3q20 30 48 64q3 5 9 5q3 1 10 1q4 0 10 -3 q5 -3 7 -9q1 -2 1 -10q-1 -5 -3 -7q-1 -2 -3 -4q-1 -1 -2.5 -3t-2.5 -3l-6 -6l-6.5 -6.5l-5.5 -5.5q-17 -15 -32 -32q-14 -19 -27 -42q-33 -55 -60 -114q-4 -12 -7 -18q1 -7 2.5 -21t2.5 -21q2 -7 -6 -9q-8 0 -8 6q-1 6 -3 16q-18 -50 -25 -75q-18 -57 -31 -125 q-24 -128 -18 -258q5 -79 16 -129q13 -66 37 -122q29 -66 71 -102q23 -20 52 -29q28 -8 58 -2q27 4 56 22q12 6 30 21q-56 28 -104 60q-21 14 -28 21l-14 10l-13 11q-35 31 -51 50q-10 12 2 21q10 10 22 -1v-1q18 -23 46 -47l12 -11l13 -10q5 -4 14 -11t12 -10 q48 -34 109 -66q0 1 1 1q45 42 87 95q70 90 139 221q61 117 108 238q105 275 126 505z" />
<glyph unicode="R" horiz-adv-x="568" d="M166 -118q-15 -4 -19 11v1q-9 45 -7 127q1 42 7 124q7 90 20 202q-4 2 -5 3q-11 6 -13 20v10q0 4 2 8q1 9 6 15q7 14 19 26q30 239 67 452q22 126 35 188q-23 -53 -44 -119q-5 -13 -19 -10q-15 6 -10 20q41 108 91 200q29 132 48 205q1 2 1 6q0 18 4 56q2 18 8 62 q5 33 12 61q4 19 7 31q1 3 2.5 8.5t2.5 7.5q0 1 1 2l3 6q2 4 3 5l1 2q1 1 4 3l1 1q2 0 2 1q4 1 6 0q4 0 6 -2q0 -1 2 -2l2 -1q1 -2 1 -3l1 -1v-3q1 -1 1 -3v-5v-9q0 -3 -0.5 -8.5t-0.5 -7.5q-1 -5 -2.5 -15.5t-2.5 -15.5q-4 -21 -12 -61q-17 -77 -29 -121q-22 -86 -32 -129 q37 59 83 116q33 41 75 82q47 43 88 69q58 35 105 42q33 5 59 0q32 -6 55 -25q23 -17 38 -46q14 -26 20 -54q11 -48 8 -113q-4 -89 -40 -218q-65 -225 -187 -400q-66 -94 -144 -168q-87 -82 -179 -131q-3 -1 -9.5 -4t-9.5 -5q11 -23 29 -80q33 -110 83 -200 q60 -103 133 -168q89 -78 187 -100q49 -13 105 -8q60 7 97 34q12 9 21 -4q9 -12 -3 -21q-1 -1 -2 -1q-47 -27 -111 -32q-56 -3 -112 11q-107 26 -197 104q-79 69 -139 173q-49 87 -86 205q-10 34 -16 51q-1 2 -5 11t-6 14q-37 -14 -65 -19q-16 -2 -23 -2q-2 -25 -8 -77 q-4 -44 -10 -122q-4 -55 -4 -123v-31l2 -30q2 -36 8 -58h1q3 -15 -11 -20zM266 877q-39 -225 -65 -434q1 0 4 1q18 5 35 -3q13 -5 26 -18q7 -8 19 -24q0 -1 1 -3q7 4 19 10q87 45 174 127q78 75 141 165q119 172 182 392q35 122 40 212q2 64 -8 106q-14 59 -49 86 q-20 16 -44 20q-24 5 -50 0q-47 -7 -97 -37q-83 -48 -161 -143q-64 -80 -112 -172q-27 -127 -55 -285zM194 389l-3 -21q2 0 7.5 0.5t8.5 0.5q27 6 56 17q-16 26 -33 32q-17 8 -33 -4q-1 -9 -3 -25z" />
<glyph unicode="S" horiz-adv-x="821" d="M414 -180q-70 -29 -127 -38q-33 -6 -68 -6q-38 0 -68 11q-40 15 -59 44q-18 30 -14 71q4 32 21 66q13 23 39 55q39 43 101 86q53 37 113 66q7 4 9 -3q4 -6 -3 -9q-58 -31 -109 -68q-60 -46 -94 -86q-47 -56 -51 -110q-3 -32 12 -53q13 -22 44 -32q28 -9 60 -9q30 0 62 6 q59 10 121 37q120 51 210 141q43 43 79 98q15 25 30 56q16 34 21 58q8 32 0 56q-7 26 -32 46q-21 16 -52 33q-24 14 -57 29q-83 40 -116 61q-57 34 -108 78q-53 48 -90 99q-39 54 -56 122q-15 64 -10 134q3 58 23 131q34 121 107 240q68 111 163 206q55 53 102 85 q66 45 122 56q36 8 69 2q38 -6 64 -31q24 -23 38 -59q11 -29 14 -67q5 -58 -5 -132q-6 -56 -25 -129q-21 -89 -74 -250q-7 -20 -21.5 -61t-22.5 -62l-45 -122q-6 -15 -19 -9q-1 0 -2 1q-5 2 -9 7q-1 1 -4 11q0 7 2 13q1 4 4 11l3 6q6 10 16 28q12 18 20 35q8 18 12 28 q32 80 46 121q3 10 10.5 30.5t11.5 30.5q3 10 9.5 31t9.5 31q17 54 34 125q16 68 23 127q8 70 3 127q-3 33 -13 60q-11 31 -32 50q-41 37 -112 22q-52 -12 -112 -53q-46 -31 -98 -82q-87 -87 -158 -202q-72 -120 -104 -233q-18 -68 -21 -125q-5 -65 10 -125q16 -63 52 -112 q40 -53 86 -93q43 -39 102 -75q42 -25 114 -60q10 -4 59 -29q41 -24 57 -37q31 -26 41 -60t0 -72q-7 -32 -23 -64q-13 -29 -32 -59q-37 -57 -83 -103q-94 -94 -220 -148zM727 680z" />
<glyph unicode="T" horiz-adv-x="702" d="M713 1520q-164 -27 -326 -77q-89 -29 -156 -58q-92 -42 -145 -80q-12 -8 -21 3q-9 13 3 22q60 43 151 81q76 32 160 57q164 50 330 74q10 2 21 3.5t24.5 3t20.5 2.5q2 4 4.5 11.5l3.5 10.5q6 13 20 8t9 -20l-3 -6q132 13 237 12q189 -3 336 -42q7 -2 5 -9t-9 -5 q-148 37 -332 37q-115 0 -246 -16q-73 -191 -126 -394q-54 -205 -92 -437q-38 -255 -41 -443q-3 -115 7 -222q3 -35 15 -103q22 -31 37 -68q9 -20 11 -39v-3v-4.5v-4.5v-3q0 -3 -1 -4q0 -3 -2 -6q0 -1 -2 -3l-4 -4q-2 -2 -5 -2q-3 -1 -6 -1q-2 0 -3 1h-2q-3 0 -3 2 q-6 3 -8 5q-3 4 -7 10l-1 2v1q-15 41 -30 104q-3 7 -2 12q-12 70 -15 106q-10 108 -7 225q6 213 42 447q35 225 91 439q55 209 120 383q-8 -1 -26 -3.5t-27 -4.5z" />
<glyph unicode="U" horiz-adv-x="880" d="M1215 -99q8 0 6 -8q0 -2 -1 -3q0 -2 -1 -2l-1 -3l-4 -5q-3 -6 -7 -10q-10 -12 -15 -17q-13 -16 -32 -33q-33 -31 -73 -56q-44 -26 -89 -33q-26 -3 -49 1t-47 17q-35 22 -66 70q-24 40 -36 86q-19 72 -21 182q-1 70 10 182q10 82 26 179q27 153 77 353q16 66 28 109 q-52 -149 -67 -190q-71 -195 -131 -336q-39 -91 -76 -165q-42 -88 -89 -158q-19 -31 -55 -74q-38 -42 -73 -60q-26 -14 -49 -14q-26 -1 -51 11q-20 9 -39 30q-16 16 -29 39q-21 35 -38 85q-14 40 -25 88q-17 80 -29 180q-18 163 -16 361q0 177 17 362q10 100 22 180 q9 56 17 89q10 49 25 89q1 3 5 7q3 3 9 6q5 2 7 3l3 1h4h1h1q1 -1 3 -1q4 -2 6 -4q4 -2 4 -5l2 -4q0 -4 1 -6q0 -1 -0.5 -3.5t-0.5 -3.5q0 -2 -0.5 -5t-1.5 -5q-2 -7 -6.5 -17.5t-6.5 -15.5q-25 -59 -26 -61l-3 -6l-12 -63q-13 -87 -21 -178q-16 -178 -18 -359 q0 -212 16 -358q10 -93 28 -176q8 -41 23 -86q14 -41 35 -79q16 -24 25 -33q12 -15 31 -25q19 -8 37 -8q17 0 37 10q32 17 65 54q31 34 54 70q40 56 91 153q24 46 78 162q68 156 133 335q56 153 116 341q48 149 106 344l50 173l7 22l3 11l2 5l1 3v2l-4 1l22 -2q3 -2 2 -3v-3 l-1 -1h-1h1v-3l-2 -6l-2 -11l-5 -22l-24 -87l-100 -347q-53 -183 -92 -348q-44 -174 -75 -351q-34 -211 -34 -356q2 -107 20 -175q14 -48 33 -80q26 -42 57 -60q13 -9 37 -14q23 -4 40 -1q37 4 80 28q37 20 72 50q11 9 33 29q5 6 15 16l8 8l3 4l1 2q1 1 0 1q0 -1 1 -1 q0 8 8 6zM1141 1619z" />
<glyph unicode="V" horiz-adv-x="749" d="M1412 1717q7 3 11 -5q2 -9 -6 -11q-35 -11 -63 -28q-33 -20 -56 -40q-50 -42 -97 -100q-78 -95 -156 -234q-106 -186 -248 -507q-34 -77 -109 -252t-116 -267q-67 -151 -123 -256q-35 -66 -73 -123q-52 -77 -97 -109q-1 -1 -3.5 -3t-3.5 -3l-9 -5q-8 -4 -18 -8l-5 -2 l-5 -2l-10 -2q-11 -2 -22 0q-20 3 -40 17q-16 15 -26 30q-18 25 -31 68q-12 42 -16 71q-9 55 -11 144q0 64 5 142q9 127 36 282q23 138 57 278q35 153 59 276q33 168 42 278q4 48 4 70q2 37 -4 67q-3 18 -9 28q-3 5 -6 5q-5 0 -7 -1q-10 -3 -23 -16q-11 -10 -23 -25 q-33 -42 -75 -116q-4 -7 -11.5 -21.5t-11.5 -21.5q-6 -17 -6 -20l-6 -24q-4 -18 -9 -28t-13 -16q-4 -4 -14 -4q-6 0 -12 2q-14 5 -9 19v1l1 1q6 14 41 83v1l1 1q4 7 11.5 21t10.5 21q48 82 78 121q19 21 26 27q17 17 34 24q15 4 28 0q12 -5 20 -17q10 -16 14 -39 q5 -25 5 -74q0 -25 -4 -71q-11 -119 -43 -281q-25 -128 -59 -278q-33 -145 -56 -276q-27 -158 -35 -279q-6 -75 -5 -140q0 -82 10 -139q4 -34 15 -67q10 -34 27 -60q12 -16 20 -22q11 -9 24 -11q7 -2 13 0l7 1l4 1l3 2q13 5 14 6l7 4l7 5q39 28 89 101q31 44 72 120 q53 97 124 253q38 86 113 259t114 259q144 321 252 508q79 137 159 235q53 63 101 102q23 20 59 41q29 18 67 29z" />
<glyph unicode="W" horiz-adv-x="1132" d="M1186 1375q3 -13 -9 -18q-1 -18 -1 -55q-6 -178 -25 -384q-19 -183 -50 -381q-37 -225 -74 -377q-23 -94 -51 -186q-33 -108 -67 -182q-20 -45 -45 -86q-33 -51 -66 -76q-25 -18 -49 -23q-29 -6 -55 8q-21 10 -41 36q-13 20 -25 45q-16 38 -30 94q-12 53 -17 96 q-10 64 -18 192q-6 106 -8 384q0 21 -0.5 60.5t-1 71.5t-1.5 60q-4 62 -8 94q-4 31 -9 44q-1 1 -2.5 4t-2.5 4l-1 1h-1q-2 2 -11 -9q-9 -13 -21 -40q-9 -22 -16 -45q-12 -37 -28 -91q-17 -61 -49 -185q-25 -97 -51 -185q-35 -114 -72 -180q-17 -28 -32 -42q-12 -10 -26 -14 q-15 -5 -32 2q-14 4 -25 16q-9 9 -17 22q-11 20 -18 49q-9 37 -13 97q-1 49 0 98q4 90 17 192q10 95 27 190q30 179 71 378q12 56 18 85q-13 4 -11 16q11 88 34 190q11 51 25 94q4 16 7 24q1 4 5 12q2 4 3 7q2 2 2 3l3 2q2 2 6 4t9.5 0t8.5 -5t2 -4q1 -3 1 -5q1 -5 1 -9 q0 -2 -0.5 -4t-0.5 -3q0 -2 -0.5 -6t-0.5 -7q-2 -16 -4 -24q-14 -79 -38 -189q-6 -31 -20 -93.5t-20 -93.5q-49 -246 -70 -377q-38 -224 -45 -379q-2 -47 0 -94q2 -53 11 -92q7 -25 16 -41q11 -20 26 -26q7 -2 16 -1q8 2 16 7q16 11 30 32q19 26 42 84q13 33 32 90 q20 60 52 184l48 186q16 62 26 92q9 27 16 46q11 30 23 45q3 7 9 11q12 7 18 7q7 0 10 -2q2 -1 3.5 -2l3 -2t2.5 -2q1 -2 4 -6.5t4 -6.5q5 -13 12 -49q5 -33 9 -97t8 -192q6 -256 14 -383q6 -97 18 -189q15 -119 41 -183q11 -26 21 -39q13 -19 29 -28q17 -11 37 -6 q16 3 38 17q27 21 59 68q25 39 45 83q36 80 67 178q25 75 51 184q45 186 75 375q30 188 48 380q19 197 23 382v91q-9 39 -11 53q-6 28 -14 79q-6 42 -9 81q0 27 1 41q0 11 3 22q4 14 9 23q7 14 20 6q6 -3 8 -10v-1q15 -85 18 -193q2 -52 2 -80z" />
<glyph unicode="X" horiz-adv-x="969" d="M1265 1590q5 -2 7 -11v-6v-3l-1 -2q-1 0 -1 -1t-1 -2l-2 -2q-6 -7 -10 -10q-9 -6 -20 -11q-16 -7 -20 -8q-11 -5 -23 -6h-6q-14 -10 -21 -16q-27 -21 -83 -71q-69 -63 -158 -157q-140 -147 -293 -334q-40 -50 -60 -76q2 -48 5.5 -146t5.5 -146q10 -238 20 -357 q12 -118 21 -176q10 -58 17 -87q16 -56 30 -81q10 -20 24 -30q15 -12 33 -9q15 1 37 14q15 10 34 25q29 26 57 66q26 36 47 74q40 71 74 161q33 85 57 169v1q0 2 4 2q3 -2 2 -4q-42 -187 -119 -339q-20 -38 -47 -77q-32 -44 -60 -70q-20 -18 -37 -29q-26 -16 -46 -18 q-16 -2 -27 2q-13 3 -24 12q-17 12 -32 38q-18 33 -32 87q-8 27 -18 88q-14 85 -22 179q-15 159 -23 358q-7 113 -10 255q-95 -124 -176 -243q-139 -206 -227 -382q-4 -8 -11 -4q-8 4 -4 11q88 179 225 386q89 132 192 268q-2 44 -2 67q-7 222 -30 354q-8 49 -19 86 q-10 42 -30 81q-25 46 -51 58q-30 15 -72 -8q-31 -18 -66 -55q-31 -36 -52 -71q-48 -75 -78 -159q-4 -9 -13 -6q-9 4 -6 13q42 92 83 161q28 43 52 74q31 42 66 65q23 16 46 20q28 5 52 -7q21 -9 40 -32q10 -12 26 -40q18 -37 32 -86q14 -52 20 -89q25 -147 30 -358 q1 -10 1 -30q7 9 21.5 27t21.5 27q148 186 291 339q95 101 158 159q48 44 85 74q21 17 46 34q16 10 25 15q2 1 4.5 2l5 2t5.5 2q10 4 18 4q4 0 5 -1h1q5 -3 6 -4z" />
<glyph unicode="Y" horiz-adv-x="1048" d="M1023 700q-14 -89 -38 -185q-38 -152 -89 -280h3q62 6 95 4q13 0 25 -3q3 -1 7 -3t5 -3q3 -7 3 -9q0 -1 -4 -9q-4 -2 -5 -2q-6 -2 -8 -2q-28 -3 -49 16q-30 0 -68 -5q-7 0 -11 -1q-10 -28 -26 -62q-81 -187 -192 -328q-69 -85 -133 -137q-48 -37 -83 -52q-26 -12 -48 -16 q-29 -5 -53 3q-16 5 -25 13q-10 7 -19 22q-10 20 -12 51q-1 41 15 97q30 88 93 168q58 74 138 131q75 54 169 88q51 17 92 25q42 8 63 11q52 125 94 288q23 92 36 184q13 101 13 186q0 54 -9 89q-7 26 -21 27q-17 2 -36 -16q-24 -19 -60 -69q-25 -36 -52 -79 q-23 -37 -90.5 -149.5t-106.5 -172.5q-58 -90 -110 -154q-74 -88 -139 -133q-45 -31 -88 -42q-52 -15 -100 -3q-25 6 -48 18q-26 15 -41 30q-35 35 -48 88q-21 78 -5 193q13 91 46 186q27 81 72 176q41 83 93 166q19 30 33 49q-4 -1 -10 -3q-22 -5 -49 -7q-26 0 -50 7h-1 q-13 4 -9 16q4 13 16 9q2 0 4 -2q17 -11 41 -13q19 -1 45 4q8 2 26 8q93 132 196 224q30 28 74 61q31 22 42 27q8 4 13 5q6 2 11 1q4 0 8 -3q5 -3 7 -8q1 -3 1 -13q0 -1 -0.5 -4t-1.5 -4l-6 -12q-10 -19 -27 -41q-15 -20 -31 -37q-28 -32 -68 -67q-83 -74 -153 -113 q-6 -4 -30 -16q-24 -32 -56 -84q-103 -165 -163 -336q-32 -93 -45 -180q-14 -110 4 -181q13 -48 41 -76q14 -15 34 -25q22 -11 41 -15q41 -12 87 1q37 9 81 38q36 24 71 58q38 38 63 68q53 60 113 150q48 72 102 158q9 15 44 72.5t54 88.5q17 27 53 79q41 53 62 73 q14 11 21 15q14 8 27 8q7 0 15 -4q5 -3 12 -10q6 -8 14 -24q12 -32 16 -97q1 -75 -17 -190zM529 1317q-80 -72 -162 -179l6 3q76 45 145 115q33 34 63 69q40 48 54 74l1 1q-12 -6 -36 -24q-30 -22 -71 -59zM841 166q14 32 21 49q-36 -6 -54 -10q-48 -10 -90 -25 q-89 -31 -164 -86q-76 -54 -133 -129q-61 -81 -85 -163q-14 -47 -13 -89q2 -24 11 -39q8 -16 28 -22q32 -10 81 12q33 16 76 50q61 48 129 132q62 77 107 154q47 80 86 166z" />
<glyph unicode="Z" horiz-adv-x="1046" d="M1225 54q44 -16 65 -44q14 -20 13 -39q0 -23 -13 -40q-4 -7 -11 -2q-5 4 -2 11v1q10 13 10 30q0 15 -11 29q-17 21 -57 37q-54 19 -143 28q-49 5 -147 7q-89 0 -148 -6q-58 -6 -87 -11q-52 -68 -97 -119q-49 -57 -105 -108q-66 -61 -119 -94q-38 -22 -71 -33 q-22 -7 -41 -8q-29 0 -45 11q-11 6 -18 19q-6 10 -8 24q-1 20 6 43q11 33 40 69q41 53 115 101q63 40 135 68q84 32 179 49q40 52 84 116q86 128 152 253q71 132 123 268q28 75 46 139q19 70 30 143q10 82 5 144q-6 77 -38 136q-34 63 -96 99q-26 15 -65 29q-29 10 -70 19 q-139 28 -288 -12q-138 -35 -266 -121q-67 -45 -114 -91q-60 -58 -93 -111q-22 -36 -31 -65q-12 -38 -1 -66q10 -29 46 -41q3 0 9 -2q2 3 4 3q1 0 17 3h16q12 -2 19 -4q10 -5 18 -13l1 -1q9 -15 -4 -23q-4 -4 -11 -4q-48 6 -78 17q-21 10 -35 22q-16 16 -23 36q-6 16 -6 40 q1 19 8 39q8 30 32 70q39 62 96 116q51 49 117 95q129 87 272 127q158 42 300 15q35 -7 74 -20q44 -15 71 -30q71 -41 109 -111q35 -64 43 -148q7 -73 -4 -152q-17 -135 -76 -290q-45 -121 -124 -272q-100 -185 -218 -345q42 6 63 7q70 6 150 4q86 -2 149 -8q93 -11 147 -33 zM570 -41q24 28 70 86q-79 -18 -144 -44q-68 -27 -129 -66q-68 -46 -106 -96q-24 -29 -34 -59q-5 -18 -4 -30t10 -18q11 -6 27 -5q10 0 32 6q29 10 63 30q52 33 113 90q56 53 102 106z" />
<glyph unicode="^" horiz-adv-x="246" d="M217 1503q6 0 11 5q9 11 -2 20q-7 5 -16 38q-15 47 -30 55q-8 4 -19 1q-22 -8 -77 -85q-8 -12 4 -19q11 -7 19 3q42 61 62 74q4 -5 15 -37q11 -40 25 -52q3 -3 8 -3z" />
<glyph unicode="_" horiz-adv-x="372" d="M314 146q9 -2 7 -11q-1 -6 -7 -9h-2l-2 -1q-4 0 -6 -1q-7 0 -10 1q-13 0 -19 1l-37 4q-12 1 -36 3.5t-36 3.5q-49 2 -72 1q-22 -2 -34 -4q-17 -3 -30 -11q-12 -7 -21 5q-4 5 -2.5 11.5t7.5 9.5v1q16 9 40 13q20 3 39 3q33 0 75 -5q3 0 73 -9l36 -6q3 0 9 -1t9 -1h8h3 q2 2 8 2z" />
<glyph unicode="`" horiz-adv-x="96" d="M21 1450q7 6 13 0q63 -63 55 -83q-3 -6 -10 -6q-9 0 -14 13q-2 5 2 9q-15 25 -46 55q-6 6 0 12z" />
<glyph unicode="a" horiz-adv-x="455" d="M441 351q1 -1 1 -3q0 -3 -1 -4q-37 -36 -76 -55q-41 -24 -89 -31q-21 -3 -48 -1q-24 0 -47 15q-21 17 -26 45v4v2q-7 -7 -21 -19q-25 -20 -62 -35q-19 -6 -36 -9q-19 -3 -40 3q-11 3 -20 12q-10 10 -13 22q-4 26 6 45q8 18 24 32q15 15 30 23q35 19 70 22q75 7 137 -29 q3 -2 3 -4q1 -2 0 -5t-4 -3q-2 -2 -4 0q-65 23 -128 12q-31 -6 -57 -22q-27 -16 -39 -41q-6 -11 -4 -21q2 -8 11 -14q16 -6 27 -6q20 0 31 3q28 5 58 27q26 21 32 50q1 0 1 1v0v1l1 2q2 4 6 6q4 1 10 0q4 -3 6 -6q2 -4 0 -9v-1v0q-8 -20 -6 -41q1 -20 17 -34q16 -11 39 -13 q15 -2 44 0q46 6 86 27q43 22 74 52q2 2 3 1q3 0 4 -1z" />
<glyph unicode="b" horiz-adv-x="453" d="M444 345q2 -1 2 -4q2 -1 -1 -4q-54 -68 -115 -105q-57 -35 -125 -64l-60 -24q-12 -4 -18 -7q-23 -26 -45 -44q-20 -14 -30 -20q-12 -6 -18 -8h-1q-2 -1 -5 -1h-7l-1 1q-1 0 -2 0.5t-1 1.5q-3 1 -4 4q0 1 -0.5 2.5t-0.5 2.5q0 2 1 3q2 12 10 19q4 5 14 13q27 15 32 17 q13 5 37 15q27 33 45 72q14 33 17 63q1 15 -5 29q-6 11 -18 16q-12 3 -27 -3q-16 -6 -27 -16q-26 -21 -44 -50q-18 -26 -34 -60q-2 -6 -6.5 -16t-6.5 -16l-12 -33q-1 -3 -5 -7q-6 -2 -10 -1q-8 3 -8 11v2q-3 83 10 162q9 71 26 160q28 150 71 316q41 153 93 310 q36 102 57 152q28 73 69 148q8 13 24 35q11 16 33 32q4 2 15 4q9 2 17 -1q11 -5 14 -11t5 -14q0 -3 0.5 -7t0.5 -7v-9v-21q-3 -42 -12 -81q-8 -33 -20 -79q-42 -143 -103 -306q-65 -170 -123 -299q-60 -138 -129 -273q-1 -9 -4 -26.5t-4 -26.5q-1 -13 -4.5 -39.5t-4.5 -39.5 v-5v-3q10 24 33 60q18 29 48 56q14 13 33 20q17 9 41 4q23 -8 33 -28q9 -20 7 -40q-4 -39 -19 -72q-16 -30 -29 -48q38 14 57 22q64 25 125 62q61 39 112 103q2 2 3 2q3 0 4 -1zM104 763q-41 -152 -72 -313l-9 -45q54 109 104 220q66 151 123 298q57 142 104 304 q14 52 19 78q8 33 11 79q0 12 -1 19q0 8 -6 16l-3 3l-2 1h-1q-1 0 -1 1h-3l-4 -2q-13 -8 -24 -24q-13 -17 -21 -32q-37 -66 -67 -144q-25 -62 -55 -151q-45 -135 -92 -308zM71 106q2 2 5 4.5t5 5t4 4.5q-1 0 -2 -1t-2 -1l-6 -3q-13 -5 -30 -16q-13 -9 -18 -20h3l14 7 q9 6 27 20z" />
<glyph unicode="c" horiz-adv-x="311" d="M239 240q-31 -46 -80 -86q-25 -19 -54 -29t-63 -4q-33 6 -58 27q-26 23 -35 55q-9 33 -5 62q3 32 13 59q19 58 57 105q17 24 43 44q15 11 29 15q10 3 19 2q11 -2 19 -7l1 -1q1 0 3 -2l3 -4q4 -4 5 -6q0 -1 1 -2q0 -1 0.5 -2.5t1.5 -2.5l1 -1v-3q1 -1 1 -5q1 -1 1 -3 q3 -16 -2 -33q-6 -20 -11 -29q-8 -15 -18 -26q-3 -3 -7 -3q-4 -2 -8 2t-4 7q0 5 3 8v1q20 20 26 45q3 14 1 24q-3 12 -11 15q-6 2 -8 2q-3 1 -10 -1q-9 -3 -21 -11q-20 -16 -37 -39q-34 -46 -51 -98q-19 -52 -7 -104q8 -26 26 -41q19 -16 45 -22q25 -5 50 1l13 3q6 2 8 3 q4 2 5 2q6 2 16 8l8 4q48 33 80 79q30 43 56 99q2 3 4 3q3 2 6 0q3 -1 4 -4q0 -3 -1 -5v-1q-24 -49 -58 -100z" />
<glyph unicode="d" horiz-adv-x="449" d="M-46 139q-31 15 -44 48q-12 31 -7 63q11 63 55 109q23 23 48 37q28 15 59 19q30 3 61 -5q16 -5 29 -10q12 -6 26 -14q3 -3 4 -5q0 -5 -1 -7q-1 0 -2.5 -1t-2.5 -2q-4 0 -6 1q-20 10 -52 17q-26 5 -52 0q-29 -5 -49 -17q-22 -13 -41 -34q-37 -39 -48 -92q-4 -24 4 -50 q9 -23 30 -35q22 -12 49 -9q25 1 52 14q51 26 89 67q42 43 71 88v0q3 113 12 223q11 122 28 228q20 125 44 226q27 121 65 221q20 56 45 107q8 17 28 51q17 29 35 47q8 10 24 20q5 4 11 5q1 1 3 1l2 1q10 2 15 2h1q2 0 3 -1q3 0 5 -1q2 0 3 -1l1 -1q3 -2 4 -3l4 -3l2 -3 q3 -3 3 -6q1 0 1 -2q7 -17 7 -30q3 -26 1 -58q-1 -19 -5 -57q-34 -228 -105 -447q-36 -115 -75 -217q-41 -110 -91 -211q-21 -40 -42 -74v-9q0 -3 -0.5 -8.5t-0.5 -7.5q-2 -117 10 -227q4 -50 19 -110q15 -56 48 -98h1q4 -8 3 -11q0 -6 -5 -11q-5 -4 -11 -4q-8 2 -11 6l-1 1 q-33 53 -46 110q-15 57 -24 114q-9 66 -10 115q-1 32 -1 96q-27 -38 -60 -72q-39 -44 -92 -71q-24 -13 -57 -20q-31 -6 -63 8zM300 766q-34 -202 -44 -398q12 20 28 51q52 105 90 209q35 91 74 216q38 125 61 221q29 112 45 223l6 57q2 31 -1 56q-2 15 -6 25l-1 2l-2 4l-2 2 l-2 1q0 1 -0.5 1t-0.5 1h-1l-1 1h-1h-2h-3q-6 0 -9 -1q-1 0 -2 -1h-2q-1 -1 -2 -1q-1 -1 -3.5 -2.5t-3.5 -1.5q-10 -6 -20 -18q-19 -20 -31 -45q-18 -34 -25 -51q-24 -60 -38 -107q-64 -222 -101 -444z" />
<glyph unicode="e" horiz-adv-x="372" d="M276 233q-50 -46 -118 -69q-35 -11 -69 -11q-32 -1 -70 12q-20 9 -32 20q-13 11 -23 32q-14 38 -8 74q9 70 49 132q19 29 45 55q12 12 29 23q15 11 36 15q12 2 22 -1q11 -1 22 -11q8 -9 11 -22q2 -13 -1 -21q-3 -18 -13 -35q-12 -19 -22 -29q-24 -27 -58 -41 q-36 -14 -71 -11h-1q-11 -29 -15 -58q-3 -33 5 -58q9 -28 35 -44q13 -9 29 -13q13 -4 31 -4q34 0 64 10q31 10 60 27q26 15 54 38q25 21 45 48q21 25 33 56q0 3 3 3q1 1 4 1l3 -3q1 -2 0 -5q-25 -64 -79 -110zM33 405q-10 -16 -20 -39q62 -3 106 44q23 26 26 54q1 14 -5 20 q-3 3 -9 3q-5 2 -11 0q-16 -4 -25 -11q-12 -9 -23 -20q-22 -22 -39 -51z" />
<glyph unicode="f" horiz-adv-x="379" d="M-251 -775q-8 -17 -28 -30l-6 -2l-5 -2q-4 -3 -10 -3q-12 -3 -25 2q-13 6 -20 15q-8 12 -11 18q-8 20 -11 36q-3 11 -5 35q-3 36 -3 71q2 80 8 138q16 143 40 274q23 123 51 246q-3 8 -7 13q-2 0 -3 -1q-1 0 -3 -0.5t-3 -0.5q-15 -5 -35 -7q-4 -1 -10 0q-3 0 -7 3 q-2 2 -3 4q-2 4 -1 5q0 5 1 6q1 2 3 4q0 1 1 2t3 3.5t3 3.5q4 5 16 11q12 5 22 1q8 -2 17 -11q4 -4 6 -7q1 0 3.5 1t3.5 2q37 153 67 258q35 123 81 264q44 133 99 257q31 68 63 124q18 33 39 58q10 15 24 27q13 13 31 22h1q6 2 10 3q4 2 12 0q6 0 12 -6t7 -11q4 -9 4 -20 q0 -12 -1 -18q-3 -34 -14 -69q-20 -66 -48 -130q-56 -128 -126 -246q-25 -44 -74 -117q-24 -36 -76 -106l-3 -9q-7 -24 -8 -32q-31 -117 -60 -234q40 15 91 41q57 28 119 67q114 74 207 176q4 2 6 2q4 0 6 -2t2 -5q0 -4 -1 -5q-44 -54 -100 -98q-52 -41 -113 -78 q-103 -65 -220 -114q-9 -31 -15 -65q2 -7 6 -21.5t6 -21.5q18 -80 24 -136q9 -61 11 -138q3 -61 1 -138q-2 -80 -8 -138q-2 -23 -10 -69q-6 -35 -18 -69q-7 -18 -16 -33zM-92 567q-26 -82 -44 -145q11 14 33 44q27 37 77 113q75 121 128 241q26 57 47 129q9 31 12 65 q2 17 -3 29q0 4 -2 4v1h-1h-1q-3 1 -11 -2q-28 -16 -46 -43q-18 -25 -36 -56q-35 -63 -59 -123q-50 -119 -94 -257zM-295 46q0 1 2 1q1 0 2 1q-6 6 -13 9q-4 2 -12 0q-7 -3 -11 -9q-4 -4 -6 -5q0 -1 -1 -3h6q16 2 33 6zM-294 -779q10 6 19 19q7 10 14 28q10 26 19 64 q8 44 11 67q17 135 12 272q0 68 -9 137q-8 73 -22 134q0 3 -1.5 8.5t-2.5 8.5q-23 -105 -38 -189q-26 -135 -42 -270q-7 -67 -9 -136q0 -45 2 -67q1 -30 13 -62q6 -14 14 -17q6 -2 9 -1q1 0 3 0.5t3 0.5q4 2 5 3z" />
<glyph unicode="g" horiz-adv-x="479" d="M341 342q3 -1 4 -4t0 -6q-54 -115 -104 -199q-33 -57 -58 -96q-16 -91 -37 -168q-54 -215 -143 -427q-45 -106 -103 -201q-27 -47 -73 -90q-3 -3 -26 -18q-15 -8 -32 -9q-19 0 -35 9q-14 8 -24 25q-13 31 -12 61q2 31 9 58q16 61 38 108q49 105 110 197q30 44 65 92 q7 9 64 91q20 31 61 93.5t62 93.5q8 13 24 38.5t24 38.5q3 10 7 31.5t7 32.5q10 54 15 110q3 30 2 55q0 30 -7 52q-4 12 -12 20l-2 1l-1 1q-2 0 -2 1q-1 1 -2.5 1t-2.5 1q-8 2 -12 2q-23 0 -46 -18q-41 -34 -74 -75q-1 -1 -3 -4q-15 -19 -40 -42q-21 -21 -53 -33 q-34 -12 -68 2q-18 7 -30 21q-11 13 -18 31q-10 30 -3 64q8 34 23 57q14 26 37 47q19 19 47 34q57 28 114 19q55 -7 108 -37q3 -1 3 -5q2 -3 0 -6q-1 -2 -5 -4q-2 -1 -6 1h-1q-48 31 -101 38q-56 6 -103 -22q-45 -28 -68 -78q-11 -26 -14 -49q-2 -27 5 -46q9 -20 27 -27 q8 -3 20 -5q10 0 21 3q23 6 44 21q20 13 43 33l21 19l20 19q20 20 44 38q14 8 26 14t31 6q7 0 16 -3l3 -1q3 -1 4 -2q4 -1 8 -4q12 -11 17 -27q8 -26 10 -58q0 -38 -1 -57q-3 -57 -12 -112v-1q22 36 33 55q56 93 106 196q1 2 5 4q4 0 6 -1zM117 -124q11 38 25 97 q-2 -2 -4 -6q-3 -4 -8 -12.5t-8 -12.5q-78 -116 -118 -174q-62 -90 -132 -197q-61 -96 -105 -196q-21 -47 -35 -104q-5 -22 -7 -52q-1 -27 9 -48q12 -19 33 -19q22 3 41 21q38 35 67 84q57 95 99 198q40 97 78 208t65 213z" />
<glyph unicode="h" horiz-adv-x="494" d="M496 340q3 -3 3 -5q0 -5 -2 -6v-1q-34 -39 -73 -73q-18 -17 -42 -31q-10 -7 -25 -13q-3 -1 -7.5 -2t-6.5 -2q-6 -1 -16 -1q-8 0 -17 3q-10 3 -17 10q-13 16 -16 32q-3 31 -1 49v5v2q3 26 -2 39q-2 8 -10 11q-4 3 -10 3q-3 1 -10 1q-21 -3 -38 -19q-16 -14 -34 -36 q-4 -5 -10.5 -14t-12 -16.5t-10.5 -14.5q-18 -24 -27 -37q-26 -31 -35 -39q-12 -12 -23 -18q-12 -9 -31 -9h-9l-1 1h-3l-2 1h-1l-1 1h-1q-7 3 -10 8q-3 3 -5 8q-6 12 -8 29q-4 23 -4 52q0 96 13 206q11 93 29 202q24 134 39 201q21 98 48 199q24 95 62 195q22 58 41 94 q14 28 26 46q19 26 36 40q9 8 26 13q8 2 17 0t15 -9q11 -13 13 -27q3 -14 3 -27q-2 -58 -11 -103q-19 -96 -50 -198q-57 -190 -131 -387q-23 -64 -73 -190q-23 -58 -73 -172q-2 -27 -2 -82q0 -28 4 -49q1 -11 5 -20q1 -3 2 -3h1q0 -1 1 -1h1h3q9 0 17 5q12 8 18 14 q15 12 33 36q6 7 26 34q34 43 37 46q15 19 37 38q9 9 22 17q14 8 29 9t31 -3q15 -4 28 -20q9 -15 12 -30q2 -20 2 -28v-22q-1 -15 0 -25q0 -11 3 -15q4 -6 12 -8q20 -3 42 7q21 10 42 26q37 29 71 71q1 3 5 3q2 1 6 -1zM47 662q-19 -118 -28 -202q-3 -25 -7 -68 q66 144 130 316q34 90 69 191q33 96 61 195q25 86 47 197q9 49 9 100q0 13 -3 23q-1 11 -8 19q-7 6 -15 3q-12 -4 -19 -10q-19 -17 -31 -36q-13 -20 -24 -44q-22 -45 -39 -93q-31 -84 -59 -194q-50 -200 -83 -397zM16 187h1h-1z" />
<glyph unicode="i" horiz-adv-x="342" d="M307 354q3 -3 3 -6q0 -4 -3 -7q-56 -54 -121 -110q-29 -25 -65 -51q-35 -24 -71 -43q-17 -8 -40 -15q-8 -2 -22 -4q-14 0 -22 1q-1 1 -3.5 1t-3.5 1q-3 0 -4 1q-8 2 -12 4q-13 7 -19 17q-13 23 -10 47q6 47 22 81v1q1 2 2.5 5.5t2.5 5.5q2 5 5.5 14.5t4.5 11.5q2 7 4 17 v1l1 1v1q-4 1 -7 6q-2 4 -1 8q2 6 6 9q5 3 10 2q1 0 2.5 -1t2.5 -1q3 0 5 -2l5 -5q1 -1 3 -5q2 -6 2 -7v-2v-1q1 -2 1 -7q-2 -14 -4 -20q0 -2 -1 -3q-8 -26 -13 -38l-1 -1q-1 -4 -3 -10q-15 -33 -21 -64q-4 -18 2 -32q3 -6 10 -10q1 -1 3.5 -2t3.5 -1q1 -1 3 -1q1 -1 3 -1 t3 -1q12 -2 18 -2t18 2q20 5 37 13q72 34 134 89q57 48 117 112v1l6 3q4 0 7 -3zM-9 390q-5 -3 -19 -5q-9 0 -13 4q-3 7 4 11q6 6 16 9q1 0 1 0.5t1 0.5q9 4 17 6q9 2 12 -3q3 -6 -3 -12q-5 -6 -16 -11z" />
<glyph unicode="j" horiz-adv-x="321" d="M-418 437q-11 -4 -19 -5q-9 0 -13 5t4 10q6 5 16 9h1l1 1q12 4 17 6q8 1 12 -3q3 -6 -3 -12q-7 -7 -16 -11zM-121 347q2 -1 4 -5q1 -3 0 -6v0q-78 -157 -188 -305q-60 -83 -108 -142q-18 -25 -54 -69q-8 -30 -35 -125q-29 -91 -58 -169q-24 -69 -67 -167 q-39 -85 -88 -158q-26 -40 -64 -69q-21 -16 -51 -18q-33 3 -49 28q-15 26 -14 51q2 28 7 48q12 46 33 86q42 83 94 153q53 72 111 141q38 45 114 137q15 18 16 19l9 12q35 117 68 259q20 91 29 174q6 43 1 87q-2 11 -6 20q0 1 -1 2.5t-2 2.5t-1 2q-1 1 -3 2l-2 2 q-10 3 -17 -4q-5 2 -8 5q-2 3 -2 10q2 6 5 8h1q9 9 31 0q7 -4 12 -11q4 -8 5 -12q5 -12 6 -24q6 -44 1 -91q-7 -89 -24 -178q-18 -98 -42 -191q72 90 142 187q107 145 183 304q1 2 5 4q3 1 7 0zM-534 -295q5 17 15 49q-2 -2 -2 -3q-1 0 -3 -2q-10 -13 -69 -85 q-84 -98 -151 -195q-51 -76 -86 -153q-14 -33 -17 -41q-7 -19 -12 -41q-5 -24 -4 -40q0 -20 9 -34q6 -8 11 -10q7 -4 14 -4q15 0 32 12q29 22 55 61q51 77 83 155q74 167 125 331z" />
<glyph unicode="k" horiz-adv-x="514" d="M518 355q4 -1 6 -6q2 -3 0 -9v0q-15 -32 -36 -67q-28 -42 -45 -61q-23 -29 -55 -53q-29 -22 -71 -32q-41 -9 -79 4q-40 16 -65 44q-28 28 -43 66q-8 20 -11 39q-5 -16 -17 -48q-7 -23 -20 -47q-3 -8 -15 -24q-4 -6 -13 -10q-8 -6 -21 -4q-8 4 -11 6q-4 4 -6 8q-4 7 -6 14 q-4 13 -6 27q-4 34 -4 51q0 96 11 201q11 99 27 198q29 190 82 391q23 93 59 191q21 53 40 92q10 20 25 45q16 24 34 40q8 9 23 16q5 2 15 4q7 1 17 -2t15 -10t8 -14q4 -13 6 -27q3 -48 -7 -101q-19 -103 -46 -195q-57 -197 -127 -378q-67 -178 -150 -352q-4 -44 -4 -98 q0 -25 3 -49q2 -16 4 -22t3 -8l2 -2q0 -1 1 0h1q1 1 3.5 2.5t3.5 2.5q6 8 12 18q10 18 20 44q14 34 31 82q21 60 40 104q6 16 22 46q13 24 31 42q9 9 24 15q6 3 14 3q4 0 10 -2q5 -2 8 -6q5 -7 7 -15q2 -10 2 -14v-1q0 -16 -4 -28q-6 -26 -20 -49q-12 -20 -30 -43 q-32 -36 -71 -65q-3 -29 8 -60q12 -32 35 -60q24 -27 57 -39q34 -12 68 -5q33 7 64 29q26 19 52 50q46 58 74 125q3 4 7 7q4 2 8 -1zM41 450q-4 -34 -5 -51q38 84 56 126q41 97 74 185q68 179 124 377q28 101 44 193q9 50 6 96q-2 14 -4 22q-5 9 -10 12q-5 1 -17 -2 q-10 -5 -17 -12q-18 -18 -29 -37q-16 -28 -23 -43q-18 -37 -37 -91q-30 -83 -56 -189q-47 -190 -79 -389q-17 -101 -27 -197zM167 420q-15 -40 -26 -73q30 25 50 49q33 36 51 78q6 14 7 21q1 4 1 10q-2 7 -3 8l-1 1h-3q-6 0 -9 -1q-8 -3 -18 -11q-15 -15 -28 -38 q-3 -4 -21 -44z" />
<glyph unicode="l" horiz-adv-x="146" d="M-22 43q-9 87 -4 179q10 178 45 354q34 178 84 345q49 171 126 334q20 41 44 79q23 40 56 73q16 18 41 28q12 6 29 4l3 -1q1 0 2.5 -0.5t2.5 -0.5q1 -1 4 -2.5l5 -2.5q6 -5 10 -14q6 -14 6 -26v-24q-5 -34 -6 -37q0 -5 -1 -8q-15 -89 -42 -174q-26 -85 -56 -168 q-55 -154 -136 -329q-37 -81 -81 -159q-42 -78 -96 -150q-2 -4 -5 -4q-7 -51 -10 -118q-5 -98 3 -176q3 -40 14 -85q9 -44 33 -78q3 -6 3 -12q-2 -7 -7 -10q-5 -5 -11 -3q-7 0 -10 6q-2 2 -2 3q-20 49 -29 88q-11 46 -15 89zM44 571q-19 -94 -31 -197q46 64 80 129 q33 59 81 157q73 155 136 327q31 81 57 167q8 24 23 85q10 36 17 87q2 14 2 43q0 3 -0.5 10t-1.5 10q-4 13 -6 17q-1 3 -3 3v1h-1v0h-2q-7 1 -15 -2q-17 -6 -32 -21q-28 -29 -51 -68q-20 -32 -42 -76q-40 -84 -68 -162q-31 -83 -57 -168q-52 -170 -86 -342z" />
<glyph unicode="m" horiz-adv-x="496" d="M494 349q3 -1 3 -4q1 -3 0 -5q-18 -32 -42 -67q-25 -35 -51 -61q-14 -14 -38 -23q-11 -4 -27 2q-6 3 -11 8t-8 13q-8 24 -3 45q2 14 8 40q4 11 7 26q7 21 12 48l3 18v7q0 1 -1 3v2v1h-1v0v1h-1q-2 0 -4 -1l-6 -3q-12 -10 -25 -27q-9 -15 -19 -34q-6 -11 -11 -22 q-4 -8 -6 -13l-9 -18q0 -1 -1 -1l-1 -2l-3 -6v-1q-1 -1 -3 -4l-1 -1l-3 -3q-2 -2 -5 -3q-2 -1 -7 -1l-1 1q-5 1 -10 6q-4 6 -5 9q-2 8 -2 12q0 9 2 21q4 21 7 34v3q1 3 2.5 9.5t2.5 9.5q8 37 10 52q3 21 1 32q-1 5 -3 7h-1h-2h-4q-8 -4 -12 -8q-6 -5 -12 -12 q-10 -12 -20 -28q-14 -23 -33 -66q-6 -13 -28 -67q-11 -29 -25 -70l-24 -70q-4 -6 -7 -7q-4 -1 -9 0h-2v1q-7 3 -9 7q-1 1 -1.5 2.5t-1.5 3t-1 2.5q-3 8 -3 14q-2 16 -1 24q1 15 5 45q10 49 22 86q0 2 1 3q1 3 2.5 8.5t2.5 8.5q2 12 2 18q0 8 -3 16q-2 5 -10 8q-6 1 -18 -1 q-10 -3 -19 -9q-20 -11 -32 -28q-1 0 -1 -1l-2 -1h-2l-2 1q-1 1 -1 4q-1 1 1 3v1l4 4q9 9 29 25q6 5 20 13q10 6 25 6q14 -1 26 -13q9 -16 9 -26q1 -9 -1 -25q-1 -10 -5 -23q-11 -35 -19 -83q-4 -25 -5 -34q8 22 13 33q4 10 12 30.5t12 30.5q27 69 63 135q12 22 20 33 q1 2 3 4.5t5 5.5t4 5q9 9 19 14q6 3 13 3t15 -3q7 -4 12 -11q3 -5 5 -13q4 -21 1 -40l-1 -1q-5 -36 -13 -65q0 -2 -1 -5t-1 -4q-2 -9 -7 -35q-1 -2 -1 -5v-1q1 2 3 5.5t3 5.5q1 1 3 5t7.5 14t8.5 14q4 6 10.5 17.5t9.5 17.5l2 4q9 15 21 30l1 1h1l8 8q8 4 13 5q9 1 18 -3 t12 -13q6 -16 5 -26l-3 -21q-7 -33 -13 -51q-1 -4 -3.5 -12.5t-3.5 -12.5q-7 -29 -8 -37q-3 -18 0 -32q1 -1 3 -4l3 -3q5 -3 11 -3q17 3 30 15q28 23 51 56q24 34 42 64v1q2 2 4 3q4 0 5 -1z" />
<glyph unicode="n" horiz-adv-x="435" d="M417 350q6 -5 3 -11v-1q-52 -68 -81 -99q-27 -29 -49 -44q-15 -10 -30 -14q-23 -6 -39 4q-8 5 -14 18q-2 5 -4 19q-1 17 2 35q4 20 16 64q2 8 9 28t10 31q3 14 3 26l-2 5q0 2 -7 4q-18 6 -48 -13q-20 -12 -48 -38q-20 -18 -43 -45q-20 -23 -40 -49q-26 -34 -40 -51 q-3 -4 -11 -12t-14 -13l-6 -3q-4 -2 -11 -1q-4 0 -7 3q-2 1 -3 1l-1 1v1q-2 2 -4 6q-5 7 -7 20q-3 24 3 68q1 13 5 32q7 26 12 31q10 10 22 0q2 -2 4 -6v-1q2 -7 -3 -31q-3 -11 -7 -31t-5 -30q-2 -10 -2 -29q0 -3 1 -4q3 3 5 4l11 11q22 23 41 47l41 50q28 32 43 48 q27 27 50 44q16 11 31 17q20 7 40 3q8 -3 10 -4q7 -2 11 -8q9 -9 11 -23q2 -15 -2 -37q-5 -27 -17 -64q-3 -10 -9.5 -29.5t-9.5 -29.5q-5 -15 -5 -27q-2 -15 3 -21q5 -10 21 -8q11 2 27 12q21 13 48 40q44 49 76 101q4 7 10 3z" />
<glyph unicode="o" horiz-adv-x="285" d="M-4 234q-13 12 -19 28q-5 14 -7 31q-1 31 8 61q1 5 7 9v16q3 18 13 32q0 1 0.5 1t0.5 1q1 1 2 2.5t1 2.5l6 6q3 4 12 11q15 11 31 15q10 2 16 2q1 0 3 0.5t3 0.5q7 0 11 -1q36 -3 59 -28q1 -1 2 -2.5t1 -2.5l6 -9l4 -7q0 -1 1 -3t1 -3v-2q1 -1 1 -3q1 -1 1 -2q1 -2 1 -3 v-8q1 -4 1 -13v-3q-3 -33 -16 -57q-7 -12 -8 -13q24 2 35 5q29 6 52 19q24 13 41 36q2 2 4 3q3 0 4 -1q2 -2 2 -4v-4q-7 -11 -21 -23q-12 -10 -24 -17q-24 -14 -55 -22q-32 -6 -48 -7q-12 -14 -18 -20q-22 -22 -50 -34h-3q-1 -1 -2 -1q-2 -1 -3 -1l-8 -1h-6h-2h-8 q-15 1 -32 13zM12 375q-5 -25 10 -45q14 -20 42 -29q26 -9 54 -9h1h1q23 32 25 72q0 27 -19 44q-20 16 -44 17q-23 1 -45 -13l-1 -1q-3 -2 -8 -7l-4 -4l-1 -1q-1 -1 -1 -2q-1 0 -1 -2q-7 -9 -9 -20zM0 324q-3 -15 -3 -30q0 -28 14 -45l1 -1l3 -3l4 -3l1 -1q1 -1 5 -2t5 -1 l3 -1h3h3h4l6 1h1l2 1l1 1h2q25 9 45 28q1 1 4 4.5t5 5.5q-27 0 -51 7q-29 7 -52 32q-1 1 -3 3.5t-3 3.5z" />
<glyph unicode="p" horiz-adv-x="525" d="M232 343q1 -1 1 -3t-2 -4q-53 -47 -111 -64q-55 -16 -113 -21q-28 -2 -43 -3q-10 -14 -16 -20q-20 -22 -45 -39q-23 -16 -53 -27q-10 -3 -30 -7q-14 -3 -32 2q-8 3 -16 12q-6 8 -4 19q1 8 6 16q2 5 8 13q22 24 53 30q29 7 57 9q17 1 49 3q12 17 19 30q12 22 17 49 q4 24 -4 50q-9 22 -32 30q-8 2 -11 2h-13q-13 -2 -25 -6q-27 -12 -46 -28q-41 -37 -72 -86q-52 -78 -95 -163q0 -1 -1 -3q0 -3 -1 -4l-51 -222q-26 -111 -54 -222q-22 -94 -63 -220q-14 -36 -22 -54q-6 -12 -14 -26l-1 -1q-8 -14 -22 -24q-9 -5 -11 -5q-9 0 -13 1l-6 3h-1 q-1 1 -2 1l-3 3q-5 6 -6 11q-3 9 -3 17q-1 9 0 16q1 26 8 58q13 62 28 111q11 37 35 109q40 114 81 214q39 96 84 189q1 3 2 8.5t2 8.5q1 5 3.5 15t3.5 15q21 91 53 204q-4 6 1 14q1 3 4 4q12 45 35 109q5 14 25 53q7 13 22 25q2 2 3 2l1 1q4 2 5 2l9 3q8 0 12 -1 q7 -3 11 -7q8 -11 8 -20q0 -12 -1 -17q-3 -16 -9 -29q-12 -29 -30 -51q-15 -22 -36 -46l-9 -9l-24 -27q-22 -81 -42 -162q7 12 14 25q32 57 60 98q32 48 72 90q19 19 48 35q15 6 30 9q3 1 8.5 1t7.5 1q3 -1 8.5 -1t8.5 -1q17 -5 30 -16q14 -14 19 -28q12 -31 7 -63 q-7 -33 -20 -57q-5 -9 -10 -16q11 0 33 2q59 3 111 19q54 15 107 62q1 1 4 1q2 0 4 -2zM-232 458q-9 -25 -25 -75q2 1 3.5 3t3.5 4l3 3q23 25 35 44q14 23 25 49q4 12 6 25v12q0 1 -0.5 2t-0.5 2l-1 2h-1v0h-3q-2 0 -4 -1h-1v-1h-1l-1 -1q-6 -5 -15 -19q-12 -23 -23 -49z M-453 -307q33 132 53 221q4 18 12.5 55t12.5 55q-36 -86 -53 -130q-38 -95 -76 -214q-37 -112 -59 -219q-5 -24 -7 -54v-13q0 -5 2 -11v-1h1h1h1q1 0 1 1q3 1 8 6q1 2 3.5 5.5t3.5 5.5q5 7 13 23q14 34 20 52q36 105 63 218zM-71 244l1 1q0 1 1 1q-6 0 -19 -1t-19 -2 q-29 -2 -54 -9q-30 -8 -45 -26q-9 -12 -10 -22q-2 -10 9 -12q11 -3 24 -1q11 3 26 8q52 21 86 63z" />
<glyph unicode="q" horiz-adv-x="655" d="M615 350q3 -3 3 -6q1 -2 -1 -6q-51 -71 -125 -134q-75 -62 -151 -103q-80 -43 -169 -70q-34 -11 -78 -19q11 -45 14 -84q7 -91 3 -182q-4 -60 -8 -91q-1 -10 -3.5 -28.5t-4.5 -33.5t-4 -28q-10 -78 -34 -180q-12 -52 -25 -88q-15 -43 -42 -84q-5 -9 -16 -20 q-12 -10 -24 -15q-4 -2 -16 -4q-8 0 -18 5q-18 11 -22 24q-11 26 -12 49q-2 16 -2 47q3 93 18 183q14 90 33 180q41 187 92 348q-6 1 -14 6q-5 5 -6 10q0 8 2 11q3 7 8 12q9 9 22 15q1 0 5 2q28 80 44 120q28 78 69 153q-4 -2 -12 -8q-18 -14 -26 -23q-1 -1 -4 -3.5t-5 -3.5 q-5 -5 -10.5 -10t-13 -11.5t-11.5 -10.5q-17 -14 -41 -27q-11 -6 -25 -8h-7q-7 -1 -7 0q-4 -1 -14 1q-14 3 -28 15q-12 12 -15 28q-3 17 -2 29q1 10 5 25q6 28 19 49q24 44 64 77q36 32 86 49q20 7 50 11q28 2 51 -5q26 -8 44 -27q20 -21 25 -43q2 -3 0 -6q-2 -2 -4 -3h-5 q-2 2 -3 4q-12 23 -26 34q-17 14 -37 18q-42 6 -84 -12q-85 -38 -126 -116q-8 -13 -15 -39q-4 -28 -3 -39q0 -10 2 -15q2 -7 10 -11q7 -4 18 -4t20 4q23 11 38 23l30 27q1 1 2 2.5t2 2.5q2 1 5 4l9 9l11 11l9 9q1 0 1 1l2 1q6 6 19 14q2 1 8 3q5 2 11 0q6 -1 11 -5l8 -8 q3 -8 -1 -14v-1q-41 -74 -74 -163q-25 -68 -41 -119q5 -5 9 -13q5 -6 6 -13q43 8 79 19q86 25 166 69q161 85 270 231q3 3 6 3q2 1 6 -1zM67 33l-1 1q0 -1 -1 -2.5t-1 -2.5q0 -2 -1 -3h2q1 0 2.5 0.5t2.5 0.5q-1 0 -1 1q-1 1 -1 2t-0.5 1.5t-0.5 1.5zM26 36l-3 -3 q-2 -2 -2 -3v0l2 -2h2q1 -1 2 -1h1q1 3 2.5 8t2.5 7q-3 -2 -7 -6zM92 -253q4 86 -2 180q-3 40 -14 83q-12 -2 -18 -2q-1 -1 -1 -2q0 -2 -1 -2q-55 -182 -91 -350q-17 -79 -34 -177q-14 -92 -17 -178q0 -15 2 -43q1 -21 8 -39q6 -9 7 -10t3 -1h6q16 6 29 22q24 33 40 77 q16 41 27 86q22 86 36 176l12 90q7 50 8 90z" />
<glyph unicode="r" horiz-adv-x="309" d="M283 350q1 1 6 1q2 0 5 -3q2 -4 1 -8q-2 -4 -3 -5l-2 -4l-4 -4q-1 -1 -1 -2q-2 -1 -5.5 -4t-5.5 -5q-191 -173 -278 -170q-4 0 -6 1h-2q-3 0 -9 2q-1 0 -1 1q-2 0 -3 1l-5 2q0 1 -1 1t-3 2l-3 3q-5 5 -6 8q-3 4 -4 8q-3 9 -3 18q1 16 8 31q6 14 10 21q1 1 1 2q1 2 1 3 q13 23 16 46q1 10 -2 22q0 1 -1 2q0 2 -1 3l-2 5q-1 2 -2 4.5t-2 5.5t-2 5q-8 30 -3 60q4 27 20 56q7 11 20 24q8 6 14 9q9 5 20 2q1 0 2.5 -0.5t2.5 -0.5q1 -1 2.5 -2t2.5 -1q1 -1 3.5 -3t3.5 -3v-1l1 -1q3 -2 4 -7q0 -1 1 -2q0 -1 0.5 -3t0.5 -4q0 -18 -7 -31 q-16 -30 -32 -46q-9 -11 -30 -32v-1q0 -1 0.5 -2.5t0.5 -2.5q1 -2 2 -5.5t2 -5.5l3 -7q2 -2 2 -5l1 -2q5 -16 3 -33q-7 -35 -20 -56q-1 -1 -3 -5q-14 -26 -15 -40q-1 -3 1 -9q0 -2 1 -3v-1h1q0 -1 2 -3q5 -5 16 -6q95 -15 274 168q1 0 1 0.5t1 0.5l1 1q0 2 1 2l1 2v1h1z M14 446q-17 -31 -17 -70q8 7 22 23q18 21 28 43q5 14 4 22q-1 4 -4 7l-2 2h-1l-1 1h-2q-2 0 -6 -2q-6 -4 -8 -6q-9 -11 -13 -20z" />
<glyph unicode="s" horiz-adv-x="261" d="M102 341q2 -2 2 -4q0 -1 -2 -5q-74 -62 -159 -94q-5 -2 -15.5 -6.5t-16.5 -6.5q-3 -1 -8.5 -3.5t-8.5 -3.5v-1q6 -50 -6 -97q-12 -50 -43 -86q-33 -39 -82 -51l-24 -3q-13 0 -26 3q-13 5 -22 14t-14 22q-9 25 -1 51q6 23 21 43q16 21 35 34q19 15 38 26q51 27 93 43 q-4 16 -11 37q-4 10 -6 16l-9 27q-10 30 -12 47q-4 24 -3 49q2 25 9 47q7 24 23 44q15 21 41 30q13 4 28 -3q13 -11 13 -24q2 -13 -1 -24q-4 -16 -7 -23q-14 -28 -23 -41q-24 -35 -50 -61q1 -4 11 -31q3 -8 4 -10l12 -33q4 -11 10 -35q8 3 23.5 9.5t23.5 9.5q44 19 82 40 q39 23 72 54q1 2 4 2t5 -2zM-151 390q-2 -22 4 -42v0q19 20 44 56q15 23 21 39q10 19 8 42q-1 9 -9 14q-9 4 -17 0q-18 -7 -29 -27t-15 -40q-5 -19 -7 -42zM-132 169q0 18 -3 36q-45 -19 -87 -45q-23 -14 -36 -26q-15 -11 -31 -31q-14 -21 -19 -38q-6 -21 0 -40 q8 -20 26 -26q19 -6 41 2q41 12 69 47t35 78q5 18 5 43z" />
<glyph unicode="t" horiz-adv-x="218" d="M-2 1113q-14 3 -44 7q-4 -18 -14 -53.5t-14 -53.5q-50 -191 -98 -345q-21 -70 -43 -130v-1v-1q-30 -177 -45 -355q-7 -83 -7 -178q2 -45 6 -88q3 -22 9 -43q5 -19 19 -36q4 -4 4 -10t-5 -9q-4 -4 -9 -4t-10 5q-1 0 -1 1t-1 2q-11 24 -15 46q-6 23 -9 45q-6 46 -6 91 q-1 90 6 180q10 124 29 265q-6 -16 -15 -33q-6 -14 -22 -40q-6 -11 -13 -19q-6 -8 -20 -17q-2 -1 -6 -1q-3 1 -6 4q-1 4 0 7q0 3 4 5q8 5 15 13q4 5 12 17t22 38q19 39 35 81q2 4 2 5v1q1 1 1 2q1 3 1 7t2 11t2 10q26 175 63 353q22 109 53 236q-87 7 -155 8q-82 1 -185 -2 q-95 -3 -182 -19q-3 0 -5 1q-2 2 -2 4q0 3 1 4l3 3q90 17 185 22q91 6 185 6q70 0 160 -5q9 42 24 92q21 80 53 172q5 15 19 43q0 1 2.5 5t4.5 6v1q2 3 11 10q1 1 5 3q1 0 2.5 0.5t2.5 0.5v0h1h1h3l7 -5l2 -3l1 -2v-1q1 -1 1 -3v-4v-13q-8 -56 -14 -82q0 -2 -0.5 -4.5 t-0.5 -3.5q-20 -97 -50 -219q20 -1 43 -6q17 -2 46 -10q12 -3 24 -9q4 -2 12 -8q6 -3 11 -13l1 -1q1 -6 0 -11q-2 -6 -7 -7q-4 -3 -10 -1q-6 4 -7 7q-1 1 -1 2l-1 1q-2 2 -2 3q-1 0 -3.5 2t-4.5 2q-12 6 -19 8q-14 5 -44 11zM-90 1017q9 35 25 105q-13 3 -27 3l-1 1h-2 q-26 -110 -54 -238q-19 -87 -51 -261l15 45q20 64 50 172q23 82 45 173zM-60 1146q2 10 3 14q4 13 7 32q22 98 35 175q8 41 10 59q-6 -14 -8 -21q-28 -73 -53 -170q-16 -58 -23 -87q5 0 14.5 -1t14.5 -1z" />
<glyph unicode="u" horiz-adv-x="409" d="M170 448v-1v1zM403 343q3 -1 3 -4t-1 -4v-1q-45 -58 -96 -111q-23 -23 -55 -50q-28 -22 -46 -28q-15 -7 -34 -9q-13 0 -22 3q-8 3 -9 4q-19 14 -25 35q-12 39 -9 77q3 47 12 92q-28 -60 -55 -108q-10 -18 -21 -32q-7 -9 -15 -14q-5 -5 -10 -6l-6 -2q-2 -1 -6 -1 q-7 -1 -15 2q-6 4 -7 5h-1q-1 2 -4 5q-6 10 -8 23q-3 17 -1 39q8 66 22 119q1 4 2.5 13t2.5 13v1q2 5 6 8t10 1q5 0 8 -5q3 -4 1 -10l-15 -71q-6 -23 -12 -71q-2 -20 1 -33q0 -4 3 -13q1 0 1 -0.5t1 -0.5q0 -1 1 -1h1h1h3h1l2 1q2 0 6 2q7 3 13 9q4 4 24 26q21 30 36 63 q13 26 29 67q16 38 26 68v1l2 4q0 1 1 1l1 2q1 2 1 3q4 4 9 4q4 0 6 -3q2 -4 1 -7l-5 -17q-1 -5 -3.5 -17t-4.5 -18v-2q-9 -38 -18 -101t1 -111q8 -31 30 -32q23 -2 45 10q14 7 34 19q28 24 41 38l13 13q55 56 94 111q1 1 5 3q2 0 4 -2z" />
<glyph unicode="v" horiz-adv-x="670" d="M657 348q2 1 5 1q2 -1 4 -3q1 -2 1 -5q-1 -2 -3 -4v0q-29 -17 -67 -32q-27 -11 -69 -22q-30 -9 -72 -14q-22 -2 -32 -2q-1 0 -2.5 -0.5t-2.5 -0.5q-24 0 -37 1q-38 1 -72 21q-10 6 -14 10v-1q-28 -71 -61 -133q-34 -66 -77 -124q-20 -27 -50 -55q-17 -16 -34 -22 q-4 -3 -10 -3q-9 -2 -13 -1q-13 1 -23 11q-16 15 -24 35q-8 24 -11 36q-8 42 -11 74q-7 82 -4 146q2 74 9 146q8 77 22 145q8 38 18 71q5 18 12 36q6 17 18 34q6 9 15 15q10 8 22 8q8 0 13 -4q7 -5 8 -10q5 -8 5 -20q1 -13 -1 -37q-5 -27 -7 -37q-16 -70 -45 -138 q-27 -63 -54 -116q-3 -31 -5 -93q-3 -72 3 -143q3 -39 10 -70q2 -10 10 -33q7 -17 15 -25q3 -4 8 -6q3 -1 12 1q13 4 29 15q27 22 48 51q46 60 77 121q34 62 60 131q1 1 1 2q1 2 1 3v1q1 1 1 2q-15 16 -21 38q-11 37 0 77q2 7 8 19q4 8 15 16q3 3 13 5q8 0 13 -4q6 -3 9 -9 q4 -9 5 -11q4 -25 0 -39q-1 -13 -7 -37t-15 -48q7 -8 17 -15q25 -18 64 -23q31 -4 71 1q36 3 70 12q72 18 132 55zM37 546q-14 -74 -21 -148q20 38 36 78q30 70 47 136q11 34 9 69q-2 10 -4 15q-4 6 -9 4q-4 -1 -9 -8q-1 0 -8 -13q-14 -27 -25 -64q-7 -25 -16 -69zM291 334 q8 24 11 37q4 16 6 34q3 18 0 33q-2 8 -6 9q0 1 -2 1h-2q-2 0 -4 -1q-6 -6 -8 -11q-4 -8 -6 -15q-9 -32 2 -66q3 -11 9 -21z" />
<glyph unicode="w" horiz-adv-x="861" d="M866 335q-33 -36 -80 -57t-92 -28q-49 -9 -98 0q-50 7 -91 42q-24 23 -39 52q-12 -48 -32 -109q-14 -43 -35 -89q-20 -46 -49 -84q-16 -21 -37 -35q-23 -15 -53 -12q-12 1 -26 10q-12 7 -20 19q-17 24 -23 46q-14 51 -14 98q0 5 0.5 15t0.5 15l-1 -1l-2 -2 q-15 -19 -34 -34q-19 -16 -43 -25q-13 -5 -25 -5q-13 -1 -27 6q-13 6 -20 18q-10 14 -13 22q-10 22 -15 47q-7 49 -6 98q3 48 12 96q4 22 12 47q6 22 18 47q7 12 17 22q6 6 15 9q10 3 20 -2q10 -4 15 -14q4 -10 4 -15q0 -19 -2 -27q-13 -52 -35 -91q-19 -37 -47 -71 q-3 -44 2 -95q1 -21 8 -44q8 -23 23 -34q8 -5 19 -5q12 0 21 4q20 6 40 21q24 20 45 49q2 16 6 46q8 50 28 93q5 13 15 23q1 1 4 2.5t4 2.5q6 2 11 1q2 0 4 -2q3 -1 3 -2q3 -3 3 -6q2 -6 2 -8q-2 -17 -5 -26q-3 -13 -7 -23q-15 -39 -36 -75q-4 -33 -4 -77q0 -49 10 -90 q4 -20 16 -39q12 -18 31 -22q20 -3 38 9q17 10 33 29q29 35 48 78q21 45 34 87q21 62 37 132q0 1 -1 2q0 2 -1 2q-14 44 -17 97q-4 97 21 191q4 16 16 46q4 8 7 12q2 4 4 6l4 4l2 1q1 1 2 1q2 1 7 1l6 -3l1 -1l1 -1v-1q3 -1 3 -4q3 -5 3 -7q0 -1 3 -14q3 -22 1 -49 q0 -24 -3 -48q-9 -91 -29 -188q-6 -24 -8 -36q12 -40 45 -74q15 -14 36 -25q24 -10 43 -14q43 -7 91 -1q43 6 88 25q43 18 76 51q1 2 5 2t6 -2t2 -5t-2 -5zM219 326q-1 -5 -2 -14t-2 -13q11 24 18 46q5 11 6 22q1 1 1.5 4t0.5 4q0 2 0.5 5t0.5 4v4q-2 0 -3 -3q0 -1 -1.5 -3 t-2.5 -4q-1 -1 -1.5 -2.5t-1.5 -3t-1 -2.5q-8 -22 -12 -44zM32 432q-6 -34 -8 -56q14 18 28 46t19 42q7 20 10 44q1 12 0 21q0 3 -2 7q-1 1 -1 2h-1h-1l-2 1q-1 -1 -2 -1l-3 -3q-7 -7 -11 -16q-19 -42 -26 -87zM465 423q19 89 28 186q1 8 2 23.5t1 23.5v20v20l-2 10 q-2 0 -5 -9q-4 -12 -6 -20q-2 -4 -4 -11t-2 -8q-24 -89 -19 -184q1 -18 7 -52v1z" />
<glyph unicode="x" horiz-adv-x="622" d="M460 342q-79 -71 -166 -136q-3 -3 -5 -4q-45 -32 -86 -54q-49 -28 -100 -43q-49 -17 -110 -12q-3 1 -8 1q-9 1 -20 5q-1 0 -2.5 0.5t-2.5 0.5l-9 3l-13 5q-26 12 -48 32l-12 12q-40 -25 -96 -67q-31 -22 -59 -50q-15 -15 -24 -28q-11 -18 -14 -31q-2 -7 -5 -9 q-4 -3 -10 -3q-5 1 -9 5q-3 4 -3 10q1 1 1 3q10 25 23 38l7 8l7 7q6 6 10 9l5 5q27 23 62 48l96 66q-25 33 -37 75q-15 54 -4 111q0 6 5 9t10 2q5 0 8 -5q3 -3 3 -10q-5 -26 -3 -50q1 -24 8 -50q11 -36 33 -66q1 1 4 3q1 0 3 2t3 2q22 15 64 45q28 20 61 48q30 24 56 53 q25 28 40 62q2 6 7 7q4 3 10 1q6 -4 7 -7q3 -4 1 -10l-1 -1q-19 -38 -48 -67q-33 -32 -60 -52q-26 -21 -64 -47q-28 -20 -64 -44q-2 -2 -6 -4q-2 -2 -4 -2l8 -8q16 -16 40 -27l11 -5q6 -2 8 -2l4 -2q15 -3 17 -3q1 -1 3.5 -1t3.5 -1q49 -6 101 8q51 14 98 37q44 23 91 54 q86 57 164 135q2 2 5 2t5 -2q3 -3 3 -6q0 -2 -3 -5z" />
<glyph unicode="y" horiz-adv-x="469" d="M322 349q4 -2 4 -5q2 -3 0 -6q-73 -156 -163 -298q-11 -61 -22 -106q-25 -108 -55 -205q-32 -103 -69 -200q-33 -89 -85 -196q-26 -50 -53 -93q-24 -41 -67 -86q-21 -21 -50 -31q-16 -6 -33 -2q-17 3 -29 15q-13 11 -19 27q-5 15 -6 29q-3 28 2 56q10 50 31 104 q25 58 46 97q48 93 111 181q5 7 15.5 21t15.5 21q5 8 15.5 22.5t15.5 21.5q40 58 59 87q93 141 116 177q16 26 25 40q3 7 8 13q12 51 22 114q9 51 9 103q1 23 -4 51q-1 13 -7 23q-4 10 -13 15q-21 9 -43 -5q-24 -15 -38 -32q-16 -17 -46 -55q-14 -18 -21 -26 q-18 -23 -36 -41q-21 -21 -47 -34q-15 -7 -30 -8q-16 -3 -32 2q-17 5 -30 14q-14 11 -22 26q-14 32 -10 60q3 31 12 56q8 25 23 51q10 16 16 24q9 12 20 22q5 4 12 4q7 -2 11 -6q5 -5 3 -11q0 -6 -5 -11q-8 -8 -14 -17q-5 -7 -13 -21q-9 -17 -20 -46q-9 -28 -10 -47 q-3 -24 6 -42q8 -17 30 -23q11 -3 20 -3q14 2 21 5q19 8 40 26q16 12 37 35q6 6 16 17.5t16 17.5q26 30 39 44q22 22 43 35q14 8 28 9q18 2 31 -5q7 -3 13 -9q2 -2 5 -7t4 -6q6 -14 9 -27q4 -24 4 -55q0 -54 -6 -106q-1 -10 -3.5 -27t-3.5 -25q7 11 20.5 34t20.5 34 q17 30 51 92q25 46 48 93q4 4 5 4q3 1 6 0zM113 -59q1 5 3.5 16.5t4.5 17.5l-2 -2q0 -1 -1 -3q-78 -118 -118 -176l-60 -87l-59 -88q-57 -83 -107 -181q-24 -46 -43 -95q-20 -55 -27 -99q-5 -27 -2 -49q1 -23 16 -38q16 -14 36 -7q21 8 38 25q36 37 62 81q22 36 50 91 q48 102 83 193q38 104 69 199q32 102 57 202z" />
<glyph unicode="z" horiz-adv-x="473" d="M322 342q6 -4 3 -10q-39 -84 -112 -209q1 -6 2 -16.5t1 -15.5q3 -73 -20 -167q-21 -79 -53 -158q-61 -148 -156 -294q-45 -68 -98 -134q-30 -35 -57 -62q-16 -16 -32 -28q-17 -14 -37 -24q-11 -5 -23 -6q-15 -2 -27 5t-17 21q-5 13 -5 24q-1 19 4 44q7 23 13 41 q25 69 74 149q36 61 91 139l94 135q114 165 184 275q26 40 38 60q0 9 -3 18q-4 18 -15 33q-20 30 -58 45q-36 13 -75 7q-12 -2 -34 -10q-20 -13 -39 -20h-1q-9 -6 -15 6q-3 8 4 13l1 1q11 8 35 20q13 9 26 20q24 20 50 53q26 37 35 62q14 39 -1 63q-9 13 -24 19q-12 5 -33 3 q-28 -2 -69 -23q-75 -38 -115 -92q-10 -8 -16 0q-9 7 -1 15l2 2q21 20 59 48q33 25 64 41q20 11 35 16q20 8 39 11q22 3 41 -2q23 -8 35 -26q14 -19 14 -42q0 -18 -7 -41q-10 -31 -37 -69q-14 -19 -37 -42q37 3 73 -9q44 -17 70 -55q8 -12 16 -33q59 98 104 195q3 6 10 4z M172 -70q22 87 19 158q-18 -30 -28 -45q-59 -93 -183 -275l-94 -136q-52 -75 -89 -139q-47 -82 -70 -147q-15 -47 -14 -77q2 -22 12 -26q5 -5 13 -3q10 2 16 5q26 13 62 47q24 23 55 61q50 60 97 132q92 144 153 290q35 88 51 155z" />
<glyph unicode="{" horiz-adv-x="242" d="M456 1528q13 -9 4 -22t-22 -4l-2 2q-15 15 -44 3q-25 -9 -47 -31q-37 -37 -64 -100q-41 -102 -49 -237l-2 -31l-1 -30l-1 -62l-3 -62q-2 -42 -4 -61l-3 -31l-3 -31q-4 -20 -5 -31q-4 -20 -7 -31q-1 -2 -2.5 -7t-2.5 -8q-1 -2 -2.5 -6t-2.5 -6q6 -6 9 -12q6 -11 8 -34 q0 -10 -5 -63q-4 -36 -14 -122q-20 -145 -27 -244q-5 -55 -7 -122q-2 -70 6 -120q6 -36 18 -52q3 -4 7 -7h2q1 -1 2 -1q0 -1 2 -1l3 -1l15 -2q2 0 6.5 -0.5t7.5 -0.5q29 -2 55 6q13 4 24 12q7 4 9 8l4 4l3 4l1 2q9 13 22 4q12 -7 5 -20l-6 -9l-7 -7q-6 -7 -14 -11 q-15 -11 -31 -15q-32 -10 -67 -7q-6 0 -16 2l-16 2l-4 1l-5 1l-10 5q-8 5 -15 15q-10 12 -15 32q-2 8 -7 31q-7 49 -5 126q3 62 9 123q7 85 29 245q3 20 8 61t8 61q4 40 4 60q0 16 -5 25q0 1 -1 1l-1 2h-1q-6 -8 -17 -11q-2 0 -5.5 -0.5t-4.5 -0.5q-5 0 -9 1q-3 0 -5 1 q-4 0 -8 4q-2 2 -4 6v4q0 2 1 3q1 6 4 7q6 7 17 11q10 3 19 2q4 0 6 -1q1 2 2.5 5.5t2.5 5.5q0 1 1.5 6t2.5 8q3 9 7 29q1 5 2 15t2 15l4 30l3 30q2 21 4 61l3 62l1 61l1 31l2 31q10 142 52 242q13 32 28 57q13 24 37 51q25 26 52 40q20 9 35 9q23 0 38 -11h1z" />
<glyph unicode="|" horiz-adv-x="408" d="M409 1724q13 -7 6 -21q-17 -28 -60.5 -292t-96.5 -659q-49 -364 -78.5 -635t-23.5 -306q3 -5 3 -11q-2 -13 -16 -13h-2q-8 1 -13 10q-15 33 39 492t124.5 922.5t96.5 507.5q8 14 21 5z" />
<glyph unicode="}" horiz-adv-x="305" d="M204 703q0 -1 0.5 -2.5t0.5 -2.5q2 -4 2 -7q0 -6 -4 -11q-2 -5 -9 -7q-6 -2 -14 0h-1q-5 -11 -16 -45q-15 -56 -27 -109q-21 -98 -38 -222q-5 -37 -13 -111q-1 -10 -2.5 -28.5t-1.5 -27.5l-1 -28q0 -5 -0.5 -14.5t-1.5 -14.5q-7 -70 -25 -115q-15 -35 -34 -52 q-11 -11 -29 -19q-5 -2 -17 -4q-1 0 -4 -0.5t-5 -0.5q-3 0 -5 1q-3 0 -6 1q-15 4 -11 18q3 15 19 12h1l2 -1q4 0 5 1q4 0 10 2q9 4 19 12q14 13 27 42q18 44 23 106q0 4 1 13t1 14l2 29q1 10 2.5 28.5t1.5 27.5q8 76 14 113q15 114 39 224q21 86 29 111q11 35 18 50 q-1 1 -3 2.5t-3 2.5q-10 10 -19 26q-14 26 -17 59q-1 10 -1 30q1 5 2 14.5t1 14.5l7 56q16 150 20 225q9 131 0 224q-7 66 -22 108q-13 32 -27 46q-19 19 -42 14q-16 -5 -20 11q-3 16 12 19q2 1 6 1h2q16 -3 32 -11q14 -8 25 -21q19 -22 29 -52q17 -44 24 -113q8 -91 3 -227 q-4 -74 -18 -227l-6 -56q-2 -18 -2 -27v-27q3 -27 15 -49q7 -12 14 -19l1 -1l4 4q7 3 9 4q8 2 13 -3q5 -3 6 -6q2 -4 3 -5z" />
<glyph unicode="~" horiz-adv-x="414" d="M364 1402q8 4 11 -3q5 -6 -2 -11q-30 -25 -78 -21q-30 2 -77 18q-46 14 -69 15q-15 0 -32 -5q-10 -4 -14 -7q-11 -6 -18 -4h-2q-9 4 -9 13q0 6 4 12q1 1 2.5 2t3.5 2t3 2q6 3 20 9q21 7 43 6q26 -1 77 -18q49 -18 70 -21q16 -3 35 -1q17 3 32 12z" />
<glyph unicode="&#xa2;" horiz-adv-x="642" d="M608 969q4 -10 -7 -14q-10 -2 -14 7q-20 53 -43 83q-30 41 -71 45q-10 1 -20 0l-8 -36q-54 -250 -79 -376q-35 -170 -62 -319q17 2 41 11q22 9 40 22q18 11 36 29q65 62 99 159q4 10 14 7t7 -14q-35 -106 -102 -171q-18 -18 -39 -33q-27 -17 -45 -24q-27 -12 -57 -15 q-1 -8 -5 -29q-22 -126 -29 -189q-1 -9 -3 -27.5t-3 -27.5q6 -2 7 -6v-1l9 -24q4 -18 3 -30q-3 -9 -4 -11q-6 -8 -12 -9q-2 -1 -7 -1q-5 -1 -11 3q-6 5 -8 11q-2 3 -4 15q0 3 -0.5 7t-0.5 6q0 34 8 98q15 104 31 190q1 4 2 12t2 12q-14 0 -21 2q-53 8 -92 51q-17 18 -28 44 q-10 21 -17 49q-20 84 5 200q20 91 66 187q49 96 111 165q41 43 78 65q24 14 48 21q3 1 11 3q43 208 62 320q2 15 17 11q14 -2 11 -16q-5 -28 -11.5 -59.5t-15 -70t-12.5 -59.5l-26 -123q12 0 18 -1q28 -3 51 -20q20 -13 37 -37q25 -35 43 -92zM422 1059q1 10 5 25 q-17 -5 -37 -17q-35 -23 -70 -61q-58 -63 -106 -158q-43 -88 -64 -180q-24 -107 -6 -186q12 -51 38 -81q31 -36 75 -42q7 -2 21 -2q17 87 65 326z" />
<glyph unicode="&#xa3;" horiz-adv-x="642" d="M613 840q0 -8 -0.5 -23t-0.5 -22q0 -8 -2 -22t-2 -22q-2 -8 -10 -8q-9 2 -7 9v1q1 7 2 21.5t1 21.5v13.5v16v13.5q-2 43 -12 84q-11 43 -36 74l-7 8q-1 1 -2.5 2t-2.5 2.5t-2 2.5q-3 3 -9 7t-7 5q-19 10 -37 13q-23 2 -39 -3q-5 -1 -20 -5q-3 -1 -9.5 -3.5t-9.5 -3.5 q-35 -17 -68 -48q-29 -29 -52 -66l-10 -19q-4 -6 -5 -9l-5 -10l-9 -19q-1 -4 -3.5 -11t-3.5 -9q-31 -84 -37 -167l-1 -10q0 -7 -1 -11v-21q0 -19 1 -28q1 0 4 1t5 1q65 10 101 12q53 5 102 2q28 -2 51 -7q18 -6 26 -11q8 -4 12 -12q5 -7 5 -17t-9 -8q-9 0 -9 8v1q0 6 -9 12 q-6 4 -20 8q-16 4 -48 6q-41 1 -99 -4q-46 -4 -99 -14l-12 -3q2 -13 4.5 -39t3.5 -38q11 -105 -13 -178q-20 -56 -61 -115q27 11 54 15q47 11 106 4q19 -2 53.5 -8t48.5 -8q31 -4 48 1q23 6 40 25q5 4 11 0q4 -6 0 -10q-22 -23 -47 -30q-21 -6 -54 -4q-13 1 -48 7t-54 7 q-51 5 -99 -7q-46 -10 -93 -35q-12 -5 -18 6q-3 9 2 14q63 81 85 146q24 66 13 168q-1 11 -3.5 36t-3.5 38q-8 -2 -11 -3q-4 -1 -12 -3.5t-12 -3.5q-1 0 -4.5 -1.5t-5.5 -2.5l-1 -1q-1 -4 -7 -8q-13 -5 -18 7q-2 6 -1 10l1 2v2l2 2q0 2 2 2l1 1l2 2q1 1 4 2.5t4 2.5 q2 1 6.5 2.5t6.5 2.5q5 1 13.5 3.5t11.5 3.5q3 0 8.5 1t8.5 2q-1 11 -1 33v22q0 7 1 11l1 11q6 86 39 173q2 3 4 10t4 11l10 21l4 10q4 6 6 10l11 19q29 45 56 71q35 33 75 52q7 2 21 8q20 6 22 6q25 5 48 2q20 -2 45 -17q12 -8 18 -14t9 -8l7 -9q27 -34 39 -83 q10 -37 12 -88zM136 559q1 0 1 -2q0 2 -1 2zM135 548z" />
<glyph unicode="&#xa9;" horiz-adv-x="366" d="M280 389q5 -7 12 -4q8 3 5 12q-7 18 -18 29q-13 13 -33 16q-15 2 -35 -5q-11 -4 -29 -16q-27 -21 -44 -46q-20 -28 -28 -57q-5 -17 -5 -33q0 -21 6 -34q8 -17 25 -28q15 -9 34 -9q17 -2 33 5q2 0 16 6q4 3 14 9q25 18 40 51q3 7 -5 12q-8 4 -12 -5q-14 -26 -36 -40 q-3 -3 -11 -7q-2 0 -6 -2t-7 -3q-12 -3 -25 -3q-14 2 -23 7q-9 6 -14 17q-9 21 1 50q7 25 25 49q17 26 38 41q25 19 46 18q11 -2 20 -9q5 -4 16 -21zM234 469h1q10 -2 10 9q0 10 -9 10q-31 3 -65 -11q-30 -12 -56 -34q-55 -43 -71 -107q-9 -30 -7 -65q3 -37 21 -63 q18 -27 51 -42q31 -14 64 -14q35 0 64 11q31 11 57 33q25 24 37 53q13 30 18 62q11 68 -21 126q-17 29 -42 50q-26 23 -58 30q-8 0 -9 -6q-2 -9 6 -9q26 -6 51 -27q23 -18 38 -46q29 -53 19 -115q-10 -68 -51 -106q-43 -39 -109 -39q-69 2 -100 50q-31 45 -11 112 q15 59 65 97q23 20 51 30q28 13 56 11z" />
<glyph unicode="&#xbf;" horiz-adv-x="702" d="M622 1468q3 8 12 14q3 2 9 5t7 4q9 2 13 -1q5 -6 -1 -12q-4 -7 -13 -12l-1 -1q-7 -7 -15 -10t-11 1q-4 4 0 12zM659 1416q-1 2 3 3q11 2 18 -3l4 -4q1 -1 1 -4l2 -6q1 -3 1.5 -6.5t1 -8t0.5 -6.5q1 -1 1 -3v-2q0 -2 0.5 -6t0.5 -7q2 -32 -3 -77q-11 -69 -42 -146 q-47 -116 -139 -264q-30 -49 -86 -136t-74 -115q-103 -164 -143 -257q-34 -81 -39 -138q-3 -40 6 -69q4 -13 13 -32l10 -14q2 -2 5.5 -6.5t5.5 -6.5q22 -23 58 -30q30 -5 68 5q38 12 65 29q33 19 59 42q52 43 97 108q41 59 72 128q27 65 43 140q14 73 14 145q0 6 4.5 10.5 t11.5 4.5q6 0 10.5 -4.5t4.5 -10.5v-2q-6 -76 -24 -148q-19 -72 -48 -142q-30 -69 -72 -132q-48 -68 -100 -113q-25 -24 -61 -45q-28 -18 -70 -32q-43 -13 -78 -6q-42 6 -71 37q-12 12 -14 15l-11 16q-12 24 -16 37q-10 36 -7 78q7 67 41 146q27 65 67 134q35 62 77 128 q23 36 76.5 120t81.5 130q95 158 136 261q30 80 39 139q5 39 2 71v8l-2 2l-1 2q-2 6 -2 8q-2 8 -2 11v12v3q0 1 1 2q0 2 4 7z" />
<glyph unicode="&#x2000;" horiz-adv-x="872" />
<glyph unicode="&#x2001;" horiz-adv-x="1745" />
<glyph unicode="&#x2002;" horiz-adv-x="872" />
<glyph unicode="&#x2003;" horiz-adv-x="1745" />
<glyph unicode="&#x2004;" horiz-adv-x="581" />
<glyph unicode="&#x2005;" horiz-adv-x="436" />
<glyph unicode="&#x2006;" horiz-adv-x="290" />
<glyph unicode="&#x2007;" horiz-adv-x="290" />
<glyph unicode="&#x2008;" horiz-adv-x="218" />
<glyph unicode="&#x2009;" horiz-adv-x="349" />
<glyph unicode="&#x200a;" horiz-adv-x="96" />
<glyph unicode="&#x202f;" horiz-adv-x="349" />
<glyph unicode="&#x205f;" horiz-adv-x="436" />
<glyph unicode="&#x25fc;" horiz-adv-x="405" d="M0 405h405v-405h-405v405z" />
</font>
</defs>
</svg>
